<svg enable-background="new 0 0 315.1 163.1" viewBox="0 0 315.1 163.1" xmlns="http://www.w3.org/2000/svg"><g fill="#377dff" opacity=".15"><ellipse cx="305.6" cy="105.1" opacity=".5" rx="7.5" ry="7.5"/><path d="m72.9 24.6c0 2.7-2.2 4.9-4.9 4.9s-5-2.1-5-4.9 2.2-4.9 4.9-4.9 5 2.2 5 4.9z" opacity=".5"/><path d="m246.5 34c0 2.7-2.2 4.9-4.9 4.9s-4.9-2.2-4.9-4.9 2.2-4.9 4.9-4.9 4.9 2.2 4.9 4.9z" opacity=".5"/><path d="m315.1 126.7c0 1.1-.9 2-2 2s-2-.9-2-2 .9-2 2-2 2 .9 2 2z" opacity=".5"/><circle cx="87.5" cy="4.9" opacity=".5" r="2"/><path d="m310.9 73c0 1.4-1.1 2.7-2.7 2.7-1.4 0-2.7-1.1-2.7-2.7 0-1.4 1.1-2.7 2.7-2.7 1.5.1 2.7 1.3 2.7 2.7z" opacity=".5"/><ellipse cx="42.1" cy="39.8" opacity=".5" rx="11.2" ry="11.2"/><path d="m8.6 131.3c0 1.4-1.1 2.7-2.7 2.7-1.4 0-2.7-1.1-2.7-2.7s1.1-2.7 2.7-2.7c1.5.1 2.7 1.3 2.7 2.7z" opacity=".5"/><path d="m299.8 162.9c0-78.3-63.4-141.7-141.7-141.7s-141.7 63.4-141.7 141.7z" opacity=".47"/></g><path d="m185.9 138.9c-.1 0-.2.1-.3.1-2.7 1.3-4.1 1.1-6.8-.2-2.5-1.1-4.7-2.5-6.8-4.2-2.6-2.3-4.6-5.3-4.9-8.7-.1-.7-.1-1.6.4-2.2.6-.8 1.9-1 2.8-.6 1 .4 1.7 1.1 2.6 1.8.4.3.6.6 1.1.7s.9 0 1.2-.4c.4-.6-.3-1.4-.8-1.8-1.3-1.1-2.5-1.6-3.7-2.6-1.6-1.2-3.2-2.6-4.1-4.5-.9-1.8-1.1-4.1-.2-5.9.3-.5.7-1.1 1.2-1.4.9-.5 2.1-.5 3.2-.4 1.1.3 2.1.6 3.2.7 2.6.3 3.6-1.6 3.6-3.9 0-1.6-.5-3.1-.6-4.7-.2-2.8 1.2-5.8 3.7-7 2.6-1.2 6.1-.1 7 2.6 1 2.9-1.3 6.1.2 8.9.5.9 1.6 2.1 2.5 2.6 1.5.9 3.5-.2 5.1-.1.4 0 .7.1 1 .4.2.2.3.5.3.7.4 2-.4 4.2-1.8 5.6-1.7 1.6-4.7 2.4-5.4 4.7-.5 1.6-.3 5.3 2.2 4.9.9-.2 1.6-1 2.4-1.4 1.1-.4 2.3.4 2.7 1.4.5 1 .4 2.3-.1 3.3-.6 1.6-1.9 3-3.2 4.3-2.7 3.1-4.4 5.7-7.7 7.3z" fill="#00c9a7"/><path d="m182.3 103.7v58.8" fill="none" stroke="#1e2022" stroke-miterlimit="10" stroke-width=".9128"/><path d="m189.1 113.9-6.8 6.8-6.9-6.8" fill="none" stroke="#1e2022" stroke-miterlimit="10" stroke-width=".9128"/><path d="m189.1 127.6-6.8 6.8-6.9-6.8" fill="none" stroke="#1e2022" stroke-miterlimit="10" stroke-width=".9128"/><path d="m196.3 108.4c-.3-.3-.6-.3-1-.4-1.6-.1-3.7.9-5.1.1-.8-.5-1.9-1.7-2.5-2.6-1.1-2-.2-4.3 0-6.5-.9 0-1.7.4-2.3 1.1-.6.8-.6 2-.5 3.1.5 4.7 3.4 8.9 6.9 12.1.3.3.6.5.9.7.7-.5 1.5-.9 2-1.4 1.6-1.4 2.3-3.6 1.8-5.6.1-.1 0-.4-.2-.6z" fill="#191c3c" opacity=".3"/><path d="m214 121.3c-.1.1-.3.1-.4.2-3.8 1.8-5.8 1.6-9.5-.2-3.4-1.6-6.7-3.5-9.5-5.9-3.6-3.2-6.3-7.4-6.9-12.1-.1-1.1-.1-2.2.5-3.1.8-1.2 2.6-1.4 4-.8s2.5 1.6 3.6 2.6c.5.5.9.8 1.6 1 .6.2 1.4 0 1.6-.5.5-.8-.4-1.8-1.1-2.5-1.7-1.5-3.5-2.4-5.3-3.7-2.4-1.6-4.5-3.7-5.8-6.2-1.3-2.6-1.6-5.8-.3-8.2.4-.7 1-1.5 1.7-1.9 1.3-.8 3-.8 4.5-.5s2.9.9 4.5 1.1c3.7.4 5-2.2 4.9-5.5-.1-2.2-.7-4.4-.9-6.7-.2-3.9 1.7-8.1 5.3-9.8 3.6-1.6 8.5-.1 9.8 3.7 1.4 4-1.7 8.6.3 12.4.6 1.3 2.2 3 3.5 3.7 2 1.2 4.8-.2 7.1-.1.5 0 1.1.1 1.5.5.3.3.4.6.5 1 .5 2.8-.5 5.8-2.6 7.8-2.4 2.2-6.6 3.3-7.6 6.7-.6 2.1-.4 7.4 3 6.8 1.3-.2 2.1-1.5 3.3-1.8 1.5-.5 3.2.5 3.9 1.9.6 1.5.5 3.1-.1 4.7-.9 2.3-2.7 4.2-4.5 6-3.5 3.5-5.9 7.1-10.6 9.4z" fill="#00c9a7"/><path d="m208.9 72.1v90.4" fill="none" stroke="#1e2022" stroke-miterlimit="10" stroke-width=".9128"/><path d="m218.5 86.3-9.6 9.6-9.4-9.6" fill="none" stroke="#1e2022" stroke-miterlimit="10" stroke-width=".9128"/><path d="m218.5 105.5-9.6 9.6-9.4-9.6" fill="none" stroke="#1e2022" stroke-miterlimit="10" stroke-width=".9128"/><path d="m154.9 19.9 5.3-3v-6.1c0-.5.4-.8.8-.8h61.7c.5 0 .8.4.8.8v19.4c0 .5-.4.8-.8.8h-61.7c-.5 0-.8-.4-.8-.8v-6.2l-5.3-3c-.4-.3-.4-.9 0-1.1z" fill="#377dff"/><path d="m176.6 27h-11c-.6 0-1.1-.5-1.1-1.1v-11c0-.6.5-1.1 1.1-1.1h11c.6 0 1.1.5 1.1 1.1v11c0 .6-.4 1.1-1.1 1.1z" fill="#fff"/><path d="m216.3 17.3h-32.6c-.7 0-1.3-.5-1.3-1.3 0-.7.5-1.3 1.3-1.3h32.6c.7 0 1.3.5 1.3 1.3 0 .8-.5 1.3-1.3 1.3z" fill="#fff"/><path d="m216.3 22.2h-32.6c-.7 0-1.3-.5-1.3-1.3 0-.7.5-1.3 1.3-1.3h32.6c.7 0 1.3.5 1.3 1.3 0 .8-.5 1.3-1.3 1.3z" fill="#fff"/><path d="m205.5 27.2h-21.7c-.7 0-1.3-.5-1.3-1.3 0-.7.5-1.3 1.3-1.3h21.7c.7 0 1.3.5 1.3 1.3 0 .7-.7 1.3-1.3 1.3z" fill="#fff"/><path d="m113.6 155.7-7.1 2.3c-1 .4-1.8 1.1-2.3 2.1v.1c0 1.3 1.1 2.4 2.4 2.4h10.1v-8.9z" fill="#191c3c" opacity=".3"/><path d="m104.7 57.8v.5c0 .5.2 1.2.5 1.6l.3.3c.2.3.4.5.4.9.1.5.4 1 .8 1.3l1.7 1c.2.1.4.2.6.2h2.6l1.9-.5 3 .5v-5.6l-3.6.3-.5-1.2c-.5-.9-1.4-1.6-2.5-1.6l-5.5-.3-6.4-6.6c-.2-.2-.5-.2-.7 0-.2.2-.2.5 0 .7l5.9 5.9c-.2.2-.4.4-.4.6 0 .4.3.7.7.7l1.1.1.8.8v.1z" fill="#191c3c" opacity=".3"/><path d="m113 61.9c-.3.3-.5.3-.7 0l-12.7-12.6c-.2-.2-.2-.5 0-.7.2-.2.5-.2.7 0l12.7 12.6c.3.2.3.6 0 .7z" fill="#191c3c"/><path d="m141 23.3h7.9v8.2h-7.9z" fill="#ddb758" transform="matrix(.9157 -.4019 .4019 .9157 1.2109 60.5577)"/><path d="m147.1 22.8-5.2 7.7-2.3-5.2 7.3-3.2z" fill="#191c3c" opacity=".3"/><path d="m147.2 23-9 7.4c-2 .9-4.4.2-5.5-1.7l-1-1.7-1.2.5c-.5.2-1.1-.1-1.1-.6l-.5-3.9c-.1-.4 0-.8.2-1.2l.8-1.5-1.6-3.5c-.2-.4 0-2.4.3-2.6l12.9-4z" fill="#efdcb4"/><path d="m130.5 157.9h-11.7l4.2-3 1-2.8h6.5z" fill="#ddb758"/><path d="m167 152.4-10.2 5.1 2-4.7-.6-2.9 5.6-3.5z" fill="#ddb758"/><path d="m145.9 85s.8 26.9 0 28.5c0 0 12.8 15.6 19 34l-6.6 3.7-23.6-34.3 4.6-31.7z" fill="#19a0ff"/><path d="m138.7 118.6s5.8-25.8 5.8-27.8c0-.5.6-1.1 1.4-1.8-.1-2.5-.1-4-.1-4h-6.5l-4.6 31.7 8.5 12.3c0-1.5-4.4-9.3-4.5-10.4z" fill="#191c3c" opacity=".3"/><path d="m127.2 81.8-1.4 36.3-2.6 35.5h7.9s7.1-25.7 5.8-35.1c0 0 5.8-25.8 5.8-27.8.2-1.9 7.1-4.6 6.3-9.6l-5.1-4.5-15.6 1.6z" fill="#19a0ff"/><path d="m129.5 81.8 1.1-3.4 13.5-1.5-.3-.2-15.6 1.6-1.1 3.4-1.4 36.3-2.6 35.5h2.4c.2-2.8.4-5.6.4-8.4 0-2.3.5-4.5.4-6.8 0-1.5-.3-3-.2-4.5.2-1.6.9-3.5 1.3-5.1.5-1.8.9-3.7 1.1-5.5.2-2.3-.3-4.7-.5-6.9-.3-2.8-.4-5.8-.4-8.6 0-1.9.5-3.5.7-5.2.4-2.1.1-4.4.2-6.5.2-3.1.7-6.1.9-9.1 0-1.3-.3-3.5.1-5.1z" fill="#f7f9fa" opacity=".09"/><path d="m153.2 46.5 4.9 8.3c.8 1.4.5 3.2-.6 4.3l-8.1 7.5-4.1-5.2z" fill="#ddb758"/><path d="m149 81.2-5.1-4.5-15.6 1.6-1.1 3.4-.1.5c8.7-1.8 17.8 2.9 21.4 2.1.4-.8.7-1.9.5-3.1z" fill="#191c3c" opacity=".3"/><path d="m153.2 46.5-7.9 14.8 4.1 5.2 2.6-2.4c1.3-6.3 3.1-13.8 3.1-13.8.1-.2.1-.3.2-.5z" fill="#191c3c" opacity=".3"/><path d="m149.3 27.2s.6 1.5 1.6 2.2c.9.8 5.8 5.8 5.6 9.5 0 0 .8 2.2-2.8 11.4 0 0-4.7 19.5-4.3 21.9.5 2.4 2.6 11.4 2.6 11.4s-13.6-5.8-27.7-1.6c0 0 3.1-17.5 3.4-20.8 0 0 7.1-23.9 11.7-27.7z" fill="#c6e8f7"/><path d="m149.8 27.7-.6-2.8s-8.2 3.8-9.5 6.7l-.8 4.9c-.1-.1 6.5-7.7 10.9-8.8z" fill="#fff"/><path d="m166.9 150.1 2.4 4.5c.5.9 0 2-.9 2.3l-14.8 5h-6.7s-.7-.6-.9-1.6l7.7-3.6 3.5-4.7 3.2 2.3 4.6-1.6z" fill="#191c3c"/><path d="m169.4 154.1.7 1.3c.3.5.1 1.1-.5 1.4l-14.5 5.8h-7.1c-1.2 0-2.1-1-2.1-2.1h10z" fill="#fff"/><path d="m131.5 154.2v5.2c0 1-.8 1.7-1.7 1.7h-16.4l-6.9-1.2c.4-1 1.2-1.7 2.3-2.1l7.1-2.3 5.4-3.5 2 4.3h5.9z" fill="#191c3c"/><path d="m130.1 162.5h-21.3c-1.3 0-2.4-1.1-2.4-2.4v-.1h25.6v.6c0 1-.8 1.9-1.9 1.9z" fill="#fff"/><g fill="none" stroke-miterlimit="10" stroke-width=".9128"><path d="m116.4 155.3.6 1.2" stroke="#fff"/><path d="m117.9 154.3.7 1.2" stroke="#fff"/><path d="m117.9 154.3.7 1.2" stroke="#fff"/><path d="m119.5 153.3.6 1.2" stroke="#fff"/><path d="m154.1 156.2 1.1.6" stroke="#fff"/><path d="m155.4 154.4 1 .7" stroke="#fff"/><path d="m156.5 152.8 1.1.7" stroke="#fff"/></g><path d="m127.9 9.1c.1 0 .1-.1 0 0 .4-.2.8-.3 1.1-.5s.5-.5.6-.7c.4-.5 1-.7 1.4-1.1.6-.5 1.1-.8 1.9-1 .8-.1 1.7 0 2.6-.1 1.5-.2 3-1 4.4-.5 1 .4 1.6 1.3 2.3 2.2 1.2 1.8 2.5 3.7 3.3 5.7.7 1.8.6 4 .8 6 .1.5.1 1-.1 1.5s-.6 1-.5 1.6c-.1-.6-1.1-1.7-1.4-2.4-.4-.7-.5-1.3-1.4-1.6-.4-.1-.9-.1-1.2-.5-.2-.2-.3-.5-.4-.6-.2-.5-.3-.8-.6-1.2s-.7-.5-1.2-.5c-.2 0-.4.1-.5.2s-.1.2-.2.2c-.2.2-.5.2-.6.3-1 .5-.1 2-.1 2.7 0 .8-.5 1.8-1.3 2-.2-.6-.4-1.3-.7-1.9-.6-1.2-1.8-2-2.9-2.7-.5-.4-1.1-.7-1.6-1.2-.4-.3-.6-.5-1.1-.5s-.9.5-1.2.8c-.8 1.4-2.6 2.9-4.2 1.6-.6-.5-.9-1.5-.9-2.3 0-1.3.6-1.8 1.3-2.7.7-1.3 1.1-2.3 2.4-2.8z" fill="#fec55e"/><path d="m139 67.2 7.5-13.2-6.8-2.9-3.3 5.8-7.5.5c-.7 2.3-1.2 3.7-1.2 3.7-.1.7-.3 2.4-.5 4.3z" fill="#191c3c" opacity=".3"/><path d="m156.5 38.9c.3-3.8-4.6-8.8-5.6-9.5-.9-.8-1.6-2.2-1.6-2.2l-1 .6c0 .6.2 1.4.4 2 .3.8.5 1.8.1 2.6-.6 1.4-2.6 1.5-3.5 2.6-.9 1.2-.5 3 .1 4.4 1 2.6 2.2 5.6 1.2 8.2-.3.6-.6 1.3-.7 1.9-.3 2 1.7 3.7 1.7 5.7s-2 3.5-2.6 5.4c-.7 2.3.5 4.7.6 7 0 1.9-.7 3.8-.6 5.8.1 1.3.5 2.5.9 3.7.5 1.6 1.1 3.4 1.6 5.1.8.3 1.6.5 2.2.6 0-.2.1-.3.1-.5.3-1.5.5-2.9.7-4.4-.5-2.4-1.1-4.7-1.3-5.8-.5-2.4 4.3-21.9 4.3-21.9 3.8-9.1 3-11.3 3-11.3z" fill="#f7f9fa" opacity=".04"/><path d="m139.4 50.7-3.1 6-20.9 1.5-.5-1.2c-.5-.9-1.4-1.6-2.5-1.6l-6.5-.3c-.5 0-.8.4-.8.7 0 .4.3.7.7.7l2 .2-.1.8-.8.2v.5c0 .5.2 1.2.5 1.6l.3.3c.2.3.4.5.4.9.1.5.4 1 .8 1.3l1.7 1c.2.1.4.2.6.2h2.6l1.9-.5 22.5 3.2 8.1-12z" fill="#ddb758"/><path d="m148.4 55.9-9.7-5.8 5.2-12.5c1.4-3.1 5-4.5 8.1-3.1 3.1 1.4 3.6 5 2.1 8.1z" fill="#191c3c" opacity=".3"/><path d="m147.4 54.5-9.1-4.3 4.7-13c1.4-3.1 5-4.5 8.1-3.1 3.1 1.4 4.5 5 3.1 8.1z" fill="#c6e8f7"/></svg>