<svg enable-background="new 0 0 880.3 159.4" viewBox="0 0 880.3 159.4" xmlns="http://www.w3.org/2000/svg"><path d="m795.2 151.9h-792.4l63.4-23.5 811.2-6.6z" fill="#e7eaf3" stroke="#aab4ce" stroke-miterlimit="10"/><path d="m795.2 152.9h-792.4l63.4-23.5 811.2-6.6z" fill="#e7eaf3" stroke="#aab4ce" stroke-miterlimit="10"/><path d="m795.2 153.9h-792.4l63.4-23.5 811.2-6.6z" fill="#e7eaf3" stroke="#aab4ce" stroke-miterlimit="10"/><path d="m795.2 154.9h-792.4l63.4-23.5 811.2-6.6z" fill="#e7eaf3" stroke="#aab4ce" stroke-miterlimit="10"/><path d="m795.2 155.9h-792.4l63.4-23.5 811.2-6.6z" fill="#e7eaf3" stroke="#aab4ce" stroke-miterlimit="10"/><path d="m795.2 156.9h-792.4l63.4-23.5 811.2-6.6z" fill="#e7eaf3" stroke="#aab4ce" stroke-miterlimit="10"/><path d="m795.2 157.9h-792.4l63.4-23.5 811.2-6.6z" fill="#e7eaf3" stroke="#aab4ce" stroke-miterlimit="10"/><path d="m795.2 158.9h-792.4l63.4-23.5 811.2-6.6z" fill="#e7eaf3" stroke="#aab4ce" stroke-miterlimit="10"/><path d="m63.8 0h816.5v121.8l-816.5 6.6z" fill="#f7f8f9"/><path d="m880.3 0h-346.2l346.2 127.8z" fill="#fff"/><path d="m81.9 119.5h2l2.8-8.4c.2-.5.1-1-.1-1.5l-3.7-6.5h-.8l-.1 7c.1.1.7.3.8.4.5.5.5 1.4 0 1.9s-1.4.5-1.9 0-.5-1.4 0-1.9c.1-.1.5-.4.6-.4l.2-6.9h-.6l-3.8 6.5c-.3.5-.3 1-.2 1.5l2.7 8.4z" fill="#fec55e"/><path d="m79.9 119.5h2 2l.9-2.8h-5.8z" fill="#231f20" opacity=".2"/><path d="m77.5 118h8.8v15.9h-8.8z" fill="#717386"/><path d="m81.9 118h4.4v15.9h-4.4z" fill="#4d5068"/><path d="m98 113.8v3.8c0 .7.6 1.3 1.3 1.3 1.4 0 2.5 1.1 2.5 2.5v10.3c0 1.3 1.1 2.4 2.5 2.3 1.2-.1 2-1.2 2-2.4v-10.1c0-1.4 1.1-2.5 2.5-2.5.7 0 1.3-.6 1.3-1.3v-3.9zm5.2 17.7c0-.4.4-.8.8-.8s.8.4.8.8-.4.8-.8.8-.8-.4-.8-.8z" fill="#9a9dd0"/><path d="m98 102.1h12v8.7h-12z" fill="#fec55e"/><path d="m98 102.1h4.8v8.7h-4.8z" fill="#fec55e"/><path d="m98 110.3h12v3.5h-12z" fill="#9e9e9e"/><path d="m98 110.5h12v.5h-12z" fill="#c5c5c5"/><path d="m98 111.8h12v.5h-12z" fill="#c5c5c5"/><path d="m98 113h12v.5h-12z" fill="#c5c5c5"/><path d="m104 113.8v16.9c-.4 0-.8.4-.8.8s.4.8.8.8v1.6c-1.3 0-2.3-1-2.3-2.3v-10.3c0-1.4-1.1-2.5-2.5-2.5-.7 0-1.3-.6-1.3-1.3v-3.7z" fill="#8184c4"/><path d="m102.1 102.1v3.4c0 .5.4 1 1 1 .5 0 1-.4 1-1v-1c0-.4.4-.8.8-.8.4 0 .8.4.8.8v3.6c0 .4.4.8.8.8.4 0 .8-.4.8-.8v-1.7c.9 0 1.6-.7 1.6-1.6v-2.8h-6.8z" fill="#377dff"/><path d="m98 102.1v8.1.2.3.2.7.5.7.5.3 3.8c0 .7.6 1.3 1.3 1.3h.4v-12.9l-1.4-3.6z" fill="#414042" opacity=".3"/><path d="m93.6 105.8h4.9v24.4h-4.9z" fill="#fec55e"/><path d="m98.6 131.4h-4.9v1.4c0 .6.5 1.2 1.2 1.2h2.6c.6 0 1.2-.5 1.2-1.2z" fill="#fec55e"/><path d="m93.6 130.2h4.9v1.2h-4.9z" fill="#212121"/><path d="m93.6 105.8h2.5v24.4h-2.5z" fill="#fed17e"/><path d="m95.9 100.1-2.3 5.7h4.9l-2.3-5.7c0-.2-.2-.2-.3 0z" fill="#f1f2f2"/><path d="m96 99.7-.6 1.5h1.3l-.6-1.5s0 0-.1 0z" fill="#212121"/><path d="m84.4 118 2.3-6.8c.2-.5.1-1-.1-1.5l-3.2-5.7v1.2.4 1.2.4 1.2.4 1.2.4 1.2.4 1.2.4 1.2.4 1.2.4 1.2.4 1.2.4 1.2.4 1.2.4 1.2.4 1.2.4 1.2.4 1.2.4 1.2.4 1.2.4.8c0 .6.5 1.1 1.1 1.1h1.9v-15.9h-2c0 0 0-.8 0-.8z" fill="#414042" opacity=".3"/><path d="m85.4 99h3.9c.6 0 1 .5 1 1v32.9c0 .6-.5 1-1 1h-3.9c-.6 0-1-.5-1-1v-32.9c0-.5.4-1 1-1z" fill="#377dff"/><path d="m85.5 99h2.1v34.9h-2.1c-.6 0-1.1-.5-1.1-1.1v-32.7c0-.6.5-1.1 1.1-1.1z" fill="#b7d2f9"/><g fill="#414042"><path d="m84.4 131.5h.7v.4h-.7z"/><path d="m84.4 130h.7v.4h-.7z"/><path d="m84.4 128.4h.7v.4h-.7z"/><path d="m84.4 126.9h.7v.4h-.7z"/><path d="m84.3 125.3h1.5v.4h-1.5z"/><path d="m84.4 123.8h.7v.4h-.7z"/><path d="m84.4 122.2h.7v.4h-.7z"/><path d="m84.4 120.7h.7v.4h-.7z"/><path d="m84.4 119.1h.7v.4h-.7z"/><path d="m84.3 117.6h1.5v.4h-1.5z"/><path d="m84.4 116h.7v.4h-.7z"/><path d="m84.4 114.5h.7v.4h-.7z"/><path d="m84.4 112.9h.7v.4h-.7z"/><path d="m84.4 111.4h.7v.4h-.7z"/><path d="m84.3 109.8h1.5v.4h-1.5z"/><path d="m84.4 108.3h.7v.4h-.7z"/><path d="m84.4 106.7h.7v.4h-.7z"/><path d="m84.4 105.2h.7v.4h-.7z"/><path d="m84.4 103.6h.7v.4h-.7z"/><path d="m84.3 102.1h1.5v.4h-1.5z"/><path d="m84.4 100.5h.7v.4h-.7z"/><path d="m89.3 99v6.9h-.6v2.7.3 4.6h.6v20.4c.6 0 1-.5 1-1.1v-32.7c0-.6-.4-1-1-1.1z" opacity=".3"/></g><path d="m90.4 113.2h2.6v20.7h-2.6z" fill="#191c3c"/><path d="m91.7 113.2h1.3v20.7h-1.3z" fill="#474963"/><path d="m89.8 108.6h3.5v4.9h-3.5z" fill="#191c3c"/><path d="m89.8 108.6h3.5v.3h-3.5z" fill="#fff"/><path d="m89.8 105.9h3.5v2.7h-3.5z" fill="#191c3c"/><path d="m93.2 100.3-2.8-2.4v8h2.8z" fill="#9e9e9e"/><path d="m90.4 98.8v7.1h2.8v-4.7z" fill="#ececec"/><path d="m91.8 105.9h1.4v-4.7l-1.4-1.2z" fill="#b1b1b1"/><g fill="#414042" opacity=".3"><path d="m84.4 133.9h1.1.8 1.3 1.6.1c.3 0 .5-.1.7-.3 0 0 0 0 0-.1.1-.1.1-.2.2-.3s.1-.3.1-.4v-9.1h-12.8v10.2h4.4z" opacity=".3"/><path d="m93.6 132.6c0 .7.6 1.3 1.3 1.3h2.4c.7 0 1.3-.6 1.3-1.3v-1.3-1.2-6.5h-4.9v6.5 1.2 1.3z" opacity=".3"/><path d="m93 133.9v-10.2h-2.6v10.2h1.3z" opacity=".3"/><path d="m101.7 123.7v8c0 .2 0 .3.1.5 0 .1 0 .1.1.2 0 .1 0 .2.1.2 0 .1.1.2.1.2l.1.1c.1.1.1.2.2.3 0 0 0 0 .1.1s.2.2.3.2c.4.3.9.4 1.5.4 1.2-.1 2-1.2 2-2.4v-7.8zm2.3 8.6c-.4 0-.8-.4-.8-.8s.4-.8.8-.8.8.4.8.8-.3.8-.8.8z" opacity=".3"/></g><path d="m111.2 146.2h-34.2v-21.4h36.3v19.3c0 1.1-.9 2.1-2.1 2.1z" fill="#fec55e"/><path d="m75.4 146.2h1.6v-21.4h-3.7v19.3c0 1.1.9 2.1 2.1 2.1z" fill="#bf9447"/><path d="m73.3 129.3h2.4l1.3-4.5-3.7.9z" fill="#231f20" opacity=".2"/><path d="m72.7 127.5h2.6c.2 0 .4-.1.4-.3l1.2-2.4h-3.7l-1 2c-.1.3.2.7.5.7z" fill="#fec55e"/><path d="m113.3 129.3v-3.6l-36.3-.9 2 4.5z" fill="#231f20" opacity=".2"/><path d="m114.3 127.5h-35.1c-.2 0-.3-.1-.4-.2l-1.8-2.5h36.3l1.4 1.9c.3.3.1.8-.4.8z" fill="#fec55e"/><path d="m356.2 55.4h-92.2c-1.2 0-2.1 1-2.1 2.2v2.2 5.2 67.6h93.7 2.7v-67.6-5.2-1.8-.3c0-1.3-.9-2.3-2.1-2.3z" fill="#8c98a4" opacity=".3"/><path d="m365.4 131.6h-100.3v-72.7c0-2.4 2-4.4 4.4-4.4h91.4c2.4 0 4.4 2 4.4 4.4v72.7z" fill="#fff"/><path d="m365.4 63.8v-7.4c0-1.2-1-2.2-2.2-2.2h-95.8c-1.2 0-2.2 1-2.2 2.2v7.4z" fill="#377dff"/><path d="m272.6 59.3c0 .7-.6 1.3-1.3 1.3s-1.3-.6-1.3-1.3.6-1.3 1.3-1.3c.8 0 1.3.6 1.3 1.3z" fill="#fff"/><path d="m276.9 59.3c0 .7-.6 1.3-1.3 1.3s-1.3-.6-1.3-1.3.6-1.3 1.3-1.3 1.3.6 1.3 1.3z" fill="#fff"/><path d="m281.2 59.3c0 .7-.6 1.3-1.3 1.3s-1.3-.6-1.3-1.3.6-1.3 1.3-1.3 1.3.6 1.3 1.3z" fill="#fff"/><path d="m363.2 54.5h-2.8c1.2 0 2.2 1 2.2 2.2v74.9h2.8v-74.9c0-1.2-1-2.2-2.2-2.2z" fill="#191c3c" opacity=".2"/><path d="m275.1 73.4h-1.6c-1 0-1.8-.8-1.8-1.8 0-1 .8-1.8 1.8-1.8h1.6c1 0 1.8.8 1.8 1.8 0 1-.8 1.8-1.8 1.8z" fill="#dfe2ec"/><path d="m275.1 82.5h-1.6c-1 0-1.8-.8-1.8-1.8 0-1 .8-1.8 1.8-1.8h1.6c1 0 1.8.8 1.8 1.8 0 1-.8 1.8-1.8 1.8z" fill="#dfe2ec"/><path d="m275.1 91.5h-1.6c-1 0-1.8-.8-1.8-1.8 0-1 .8-1.8 1.8-1.8h1.6c1 0 1.8.8 1.8 1.8 0 1-.8 1.8-1.8 1.8z" fill="#dfe2ec"/><path d="m275.1 100.5h-1.6c-1 0-1.8-.8-1.8-1.8 0-1 .8-1.8 1.8-1.8h1.6c1 0 1.8.8 1.8 1.8 0 1-.8 1.8-1.8 1.8z" fill="#dfe2ec"/><path d="m275.1 109.6h-1.6c-1 0-1.8-.8-1.8-1.8 0-1 .8-1.8 1.8-1.8h1.6c1 0 1.8.8 1.8 1.8 0 1-.8 1.8-1.8 1.8z" fill="#dfe2ec"/><path d="m275.1 118.6h-1.6c-1 0-1.8-.8-1.8-1.8 0-1 .8-1.8 1.8-1.8h1.6c1 0 1.8.8 1.8 1.8 0 1-.8 1.8-1.8 1.8z" fill="#dfe2ec"/><path d="m275.1 127.7h-1.6c-1 0-1.8-.8-1.8-1.8 0-1 .8-1.8 1.8-1.8h1.6c1 0 1.8.8 1.8 1.8 0 1-.8 1.8-1.8 1.8z" fill="#dfe2ec"/><path d="m353.4 73.4h-1.6c-1 0-1.8-.8-1.8-1.8 0-1 .8-1.8 1.8-1.8h1.6c1 0 1.8.8 1.8 1.8 0 1-.8 1.8-1.8 1.8z" fill="#dfe2ec"/><path d="m353.4 82.5h-1.6c-1 0-1.8-.8-1.8-1.8 0-1 .8-1.8 1.8-1.8h1.6c1 0 1.8.8 1.8 1.8 0 1-.8 1.8-1.8 1.8z" fill="#8184c4"/><path d="m353.4 91.5h-1.6c-1 0-1.8-.8-1.8-1.8 0-1 .8-1.8 1.8-1.8h1.6c1 0 1.8.8 1.8 1.8 0 1-.8 1.8-1.8 1.8z" fill="#fcd991"/><path d="m353.4 100.5h-1.6c-1 0-1.8-.8-1.8-1.8 0-1 .8-1.8 1.8-1.8h1.6c1 0 1.8.8 1.8 1.8 0 1-.8 1.8-1.8 1.8z" fill="#8184c4"/><path d="m353.4 109.6h-1.6c-1 0-1.8-.8-1.8-1.8 0-1 .8-1.8 1.8-1.8h1.6c1 0 1.8.8 1.8 1.8 0 1-.8 1.8-1.8 1.8z" fill="#fcd991"/><path d="m353.4 118.6h-1.6c-1 0-1.8-.8-1.8-1.8 0-1 .8-1.8 1.8-1.8h1.6c1 0 1.8.8 1.8 1.8 0 1-.8 1.8-1.8 1.8z" fill="#8184c4"/><path d="m353.4 127.7h-1.6c-1 0-1.8-.8-1.8-1.8 0-1 .8-1.8 1.8-1.8h1.6c1 0 1.8.8 1.8 1.8 0 1-.8 1.8-1.8 1.8z" fill="#dfe2ec"/><path d="m304.9 73.4h-23.1c-1 0-1.8-.8-1.8-1.8 0-1 .8-1.8 1.8-1.8h23.1c1 0 1.8.8 1.8 1.8 0 1-.8 1.8-1.8 1.8z" fill="#dfe2ec"/><path d="m310.6 73.4h4.7c1 0 1.8-.8 1.8-1.8 0-1-.8-1.8-1.8-1.8h-4.7c-1 0-1.8.8-1.8 1.8 0 1 .8 1.8 1.8 1.8z" fill="#fec55e"/><path d="m292.3 82.5h-10.4c-1 0-1.8-.8-1.8-1.8 0-1 .8-1.8 1.8-1.8h10.4c1 0 1.8.8 1.8 1.8 0 1-.8 1.8-1.8 1.8z" fill="#fec55e"/><path d="m301.6 82.5h31.2c1 0 1.8-.8 1.8-1.8 0-1-.8-1.8-1.8-1.8h-31.2c-1 0-1.8.8-1.8 1.8 0 1 .8 1.8 1.8 1.8z" fill="#377dff"/><path d="m325.8 91.5h-43.9c-1 0-1.8-.8-1.8-1.8 0-1 .8-1.8 1.8-1.8h43.9c1 0 1.8.8 1.8 1.8 0 1-.8 1.8-1.8 1.8z" fill="#dfe2ec"/><path d="m335.5 100.5h-53.6c-1 0-1.8-.8-1.8-1.8 0-1 .8-1.8 1.8-1.8h53.6c1 0 1.8.8 1.8 1.8 0 1-.8 1.8-1.8 1.8z" fill="#dfe2ec"/><path d="m325.8 109.6h-16.2c-1 0-1.8-.8-1.8-1.8 0-1 .8-1.8 1.8-1.8h16.2c1 0 1.8.8 1.8 1.8 0 1-.8 1.8-1.8 1.8z" fill="#377dff"/><path d="m303 109.6h-21.1c-1 0-1.8-.8-1.8-1.8 0-1 .8-1.8 1.8-1.8h21.1c1 0 1.8.8 1.8 1.8 0 1-.8 1.8-1.8 1.8z" fill="#dfe2ec"/><path d="m315.3 118.6h-33.4c-1 0-1.8-.8-1.8-1.8 0-1 .8-1.8 1.8-1.8h33.4c1 0 1.8.8 1.8 1.8 0 1-.8 1.8-1.8 1.8z" fill="#dfe2ec"/><path d="m321.3 118.6h10.7c1 0 1.8-.8 1.8-1.8 0-1-.8-1.8-1.8-1.8h-10.7c-1 0-1.8.8-1.8 1.8 0 1 .8 1.8 1.8 1.8z" fill="#fec55e"/><path d="m325.8 127.7h-43.9c-1 0-1.8-.8-1.8-1.8 0-1 .8-1.8 1.8-1.8h43.9c1 0 1.8.8 1.8 1.8 0 1-.8 1.8-1.8 1.8z" fill="#dfe2ec"/><path d="m209.5 137.1c0 5.1-4.1 9.3-9.3 9.3-5.1 0-9.3-4.1-9.3-9.3s4.1-9.3 9.3-9.3c5.1 0 9.3 4.2 9.3 9.3z" fill="#377dff"/><path d="m199.4 140-3-3 1-1 2 1.9 3.6-3.7 1.1 1.1z" fill="#fff"/><path d="m191 137.1c0 2.9 1.4 5.6 3.5 7.2 1-.8 1.9-1.9 2.5-3.1 1.9-4 .8-8.6-2.4-11.4-2.3 1.8-3.6 4.4-3.6 7.3z" fill="#231f20" opacity=".3"/><path d="m195.2 141.2c-2.3 4.7-7.9 6.7-12.6 4.4s-6.7-7.9-4.4-12.6 7.9-6.7 12.6-4.4 6.7 7.9 4.4 12.6z" fill="#fec55e"/><path d="m186.2 135.9 1-2.1 1.7.8-1 2.1 2.1 1-.7 1.5-2.1-1-1 2.1-1.7-.8 1-2.1-2-1 .7-1.5z" fill="#fff"/><path d="m182 128.9c-1.6.9-3 2.3-3.9 4.1-2.1 4.4-.5 9.7 3.6 12.2 2.8-1.7 4.7-4.7 4.7-8.2 0-3.4-1.8-6.4-4.4-8.1z" fill="#231f20" opacity=".3"/><circle cx="175.4" cy="136.9" fill="#191c3c" r="9.6"/><path d="m178.9 137.1c.2.3.3.7.3 1.2-.1.6-.3 1.1-.8 1.3-.4.2-1 .4-1.7.4v1.2h-.9v-1.2h-.7v1.2h-.9v-1.2h-1.7l.2-1h.2.5c.1 0 .2-.1.2-.3v-3.8c0-.2-.1-.3-.3-.3-.1 0-.3 0-.7 0h-.1v-.9h.5 1.2v-1.4h.9v1.4h.7v-1.3h.9v1.4c.6.1 1 .2 1.4.4s.6.6.6 1c.1.7-.2 1.1-.7 1.4.3 0 .7.2.9.5zm-3.8-.8h.1c.5 0 .9 0 1.1-.1.5-.1.7-.4.7-.7 0-.4-.2-.6-.7-.8-.3-.1-.6-.1-1.1-.1-.1 0-.1 0-.2 0zm.2 2.7c.6 0 1 0 1.3-.1.5-.1.8-.4.8-.8s-.3-.7-.8-.8c-.3-.1-.7-.1-1.3-.1h-.2v1.8z" fill="#fff"/><path d="m151.9 138.2h2.3c.5 0 .9-.4.9-.9v-3c0-.5-.4-.9-.9-.9h-1.8c-.3 0-.6-.2-.7-.5-.1-.2-.1-.3-.2-.5-.1-.3-.1-.6.1-.8l1.3-1.3c.3-.3.3-.9 0-1.2l-2.1-2.1c-.3-.3-.9-.3-1.2 0l-1.3 1.3c-.2.2-.5.3-.8.1-.2-.1-.4-.2-.6-.2-.3-.1-.4-.4-.4-.7v-1.8c0-.5-.4-.9-.9-.9h-3c-.5 0-.9.4-.9.9v1.8c0 .3-.2.6-.5.7-.2.1-.4.1-.5.2-.3.1-.6.1-.8-.1l-1.3-1.3c-.3-.3-.9-.3-1.2 0l-2.1 2.1c-.3.3-.3.9 0 1.2l1.3 1.3c.2.2.3.5.2.8-.1.2-.2.4-.2.6-.1.3-.4.4-.7.4h-1.8c-.5 0-.9.4-.8.9v3c0 .5.4.9.9.8h1.8c.3 0 .6.2.7.5.1.2.1.3.2.5.1.3.1.6-.1.8l-1.3 1.3c-.3.3-.3.9 0 1.2l2.1 2.1c.3.3.9.3 1.2 0l1.3-1.3c.2-.2.5-.3.8-.1.2.1.4.2.6.2.3.1.4.4.4.7v1.8c0 .5.4.9.9.8h3c.5 0 .9-.4.8-.9v-1.8c0-.3.2-.6.5-.7.2-.1.3-.1.5-.2.3-.1.6-.1.8.1l1.3 1.3c.3.3.9.3 1.2 0l2.1-2.1c.3-.3.3-.9 0-1.2l-1.3-1.3c-.2-.2-.3-.5-.1-.8.1-.2.3-.8.3-.8zm-11.8-3.1c.5-2.6 3.2-4.1 5.6-3.2 1.9.7 3 2.7 2.6 4.7-.5 2.6-3.2 4.1-5.6 3.2-1.8-.7-2.9-2.7-2.6-4.7z" fill="#fec55e"/><path d="m65.5 146.2h-24.9c-1.2 0-2.2-1-2.2-2.2v-20.6h27.1c.4 0 .8.3.8.8v21.3c-.1.3-.4.7-.8.7z" fill="#fdfdfe"/><path d="m41.3 142.3c-1 0-3 .2-3 2.3v-22.4c0-1.3 1-2.3 2.3-2.3h.7z" fill="#575a8f"/><path d="m57.4 136.8h1.5c.3 0 .5-.2.5-.5v-1.9c0-.3-.2-.5-.5-.5h-1.2c-.2 0-.4-.1-.4-.3 0-.1-.1-.2-.1-.3-.1-.2-.1-.4.1-.5l.8-.8c.2-.2.2-.6 0-.8l-1.3-1.3c-.2-.2-.6-.2-.8 0l-.8.8c-.1.1-.3.2-.5.1-.1-.1-.2-.1-.4-.1-.2-.1-.3-.2-.3-.4v-1.2c0-.3-.2-.5-.5-.5h-1.9c-.3 0-.5.2-.5.5v1.2c0 .2-.1.4-.3.4-.1 0-.2.1-.3.1-.2.1-.4.1-.5-.1l-.9-.9c-.2-.2-.6-.2-.8 0l-1.3 1.3c-.2.2-.2.6 0 .8l.8.8c.1.1.2.3.1.5-.1.1-.1.2-.1.4-.1.2-.2.3-.4.3h-1.2c-.3 0-.5.2-.5.5v1.9c0 .3.2.5.5.5h1.2c.2 0 .4.1.4.3 0 .1.1.2.1.3.1.2.1.4-.1.5l-.8.8c-.2.2-.2.6 0 .8l1.3 1.3c.2.2.6.2.8 0l.8-.8c.1-.1.3-.2.5-.1.1.1.2.1.4.1.2.1.3.2.3.4v1.2c0 .3.2.5.5.5h1.9c.3 0 .5-.2.5-.5v-1.2c0-.2.1-.4.3-.4.1 0 .2-.1.3-.1.2-.1.4-.1.5.1l.8.8c.2.2.6.2.8 0l1.3-1.3c.2-.2.2-.6 0-.8l-.8-.8c-.1-.1-.2-.3-.1-.5.2-.2.3-.6.3-.6zm-7.5-2c.3-1.7 2-2.6 3.6-2 1.2.5 1.9 1.7 1.7 3-.3 1.7-2 2.6-3.6 2-1.2-.4-1.9-1.7-1.7-3z" fill="#377dff"/><path d="m66.2 145.6v-21.7c0-.3-.3-.6-.6-.6h-1.8v19.1.6 2.5c0 .3.3.6.6.6h1.2c.4.1.6-.2.6-.5z" fill="#414042" opacity=".3"/><path d="m64.6 121.5h2.5v21.6h-2.5z" fill="#fec55e"/><path d="m67.1 143h-2.5v2.3c0 .5.4.8.8.8h.9c.5 0 .8-.4.8-.8z" fill="#575a8f"/><path d="m64.6 121.5h1.3v21.6h-1.3z" fill="#fde1a7"/><path d="m65.7 118.5-1.2 2.9h2.6l-1.2-2.9c0-.1-.1-.1-.2 0z" fill="#f1f2f2"/><path d="m65.8 118.4-.3.8h.7l-.4-.8c0-.1 0-.1 0 0z" fill="#212121"/><path d="m64.6 142.4h2.5v.6h-2.5z" fill="#212121"/><path d="m147.5 75.3h-5.2c-.4 0-.7-.3-.7-.7v-34.1c0-.4.3-.7.7-.7h5.2c.4 0 .7.3.7.7v34.1c0 .4-.3.7-.7.7z" fill="#13d7b6"/><path d="m143.8 42.6h1.8v1.8h-1.8z" fill="#fff"/><path d="m143.8 46.1h1.8v1.8h-1.8z" fill="#fff"/><path d="m143.8 49.6h1.8v1.8h-1.8z" fill="#fff"/><path d="m143.8 53.1h1.8v1.8h-1.8z" fill="#fff"/><path d="m143.8 56.7h1.8v1.8h-1.8z" fill="#fff"/><path d="m143.8 60.2h1.8v1.8h-1.8z" fill="#fff"/><path d="m143.8 63.7h1.8v1.8h-1.8z" fill="#fff"/><path d="m143.8 67.2h1.8v1.8h-1.8z" fill="#fff"/><path d="m143.8 70.8h1.8v1.8h-1.8z" fill="#fff"/><path d="m172.2 73.6-4.9 1.8c-.4.1-.8-.1-.9-.4l-11.5-32c-.1-.4.1-.8.4-.9l4.9-1.8c.4-.1.8.1.9.4l11.5 32c.1.3-.1.7-.4.9z" fill="#13d7b6"/><path d="m162.3 46.1c.5 1.3-.2 2.8-1.5 3.3s-2.8-.2-3.3-1.5.2-2.8 1.5-3.3 2.8.2 3.3 1.5z" fill="#fff"/><path d="m169.9 67.3c.5 1.3-.2 2.8-1.5 3.3s-2.8-.2-3.3-1.5.2-2.8 1.5-3.3c1.3-.6 2.8.1 3.3 1.5z" fill="#fff"/><path d="m154.3 37.3h-5.7c-.3 0-.5.2-.5.5v37c0 .3.2.5.5.5h5.7c.3 0 .5-.2.5-.5v-37c0-.3-.2-.5-.5-.5z" fill="#4d40ad"/><path d="m148.9 75.3h2.6v-38h-2.6c-.4 0-.8.3-.8.8v36.5c0 .4.4.7.8.7z" fill="#2d1582"/><path d="m148.1 41.9h6.7v5.3h-6.7z" fill="#fff"/><path d="m148.1 65.4h6.7v5.3h-6.7z" fill="#fff"/><path d="m140.9 75.3h-8.3c-.3 0-.6-.3-.6-.6v-39c0-.3.3-.6.6-.6h8.3c.3 0 .6.3.6.6v39c0 .4-.3.6-.6.6z" fill="#efa02e"/><path d="m132.9 75.3h3.8v-40.1h-3.8c-.5 0-.9.4-.9.9v38.4c0 .4.4.8.9.8z" fill="#fdd14e"/><path d="m137.9 72.5h-2.2c-.2 0-.3-.1-.3-.3v-32.1c0-.2.1-.3.3-.3h2.2c.2 0 .3.1.3.3v32.1c0 .2-.2.3-.3.3z" fill="#1e2022"/><path d="m105.8 75.6h90.3v5.6h-90.3z" fill="#7c98d6"/><path d="m105.8 80.8 3.1 2.9h91.3l-.1-5.7-4-2.4v5.2z" fill="#7c98d6" opacity=".2"/><path d="m612 146.3s0 .1 0 0c.7.4 0 0 0 0zm-9.1-4.5c-1.4 1.5-3.1 3.3-2.5 3.6 2 1.2 9.2 1.1 11.7.9 17 .8 34.2-6 45.8-18.4-8-5.5-18.7-6.4-28.1-3.7s-17.6 8.6-24.3 15.6c-.5.6-2.2 1.6-2.6 2z" fill="#00c671"/><path d="m602.9 141.8c.5-.5 2.1-1.4 2.6-1.9 6.8-7 15-12.9 24.3-15.6 4.5-1.3 9.3-1.8 14-1.3-5.4.2-10.8 1.6-15.5 4-8.5 4.3-15.3 11.4-20.5 19.4-2.9 0-6.1-.3-7.3-1-.7-.3 1-2.1 2.4-3.6z" fill="#05331e" opacity=".2"/><path d="m604.2 113.6c3.2-2.9 7.5-4.4 11.6-5.6 6.4-1.8 13-3.1 19.6-3.7-3.6 8-6.2 16-12.7 21.9-2.6 2.3-6.8 4.6-9.5 6.8-3.2 2.6-8.3 9.3-10.9 12.6-3 .6-5.3-3.7-6.6-6.7-1.7-3.8.2-9.6 1.5-13.5 1.6-4.5 3.6-8.8 7-11.8z" fill="#00c671"/><path d="m611.5 133.1c2.3-2.6 6-5.6 8.2-8.3 4.5-5.8 6-12.5 7.6-19.4 2.7-.5 5.4-.8 8.1-1.1-3.6 8-6.2 16-12.7 21.9-2.6 2.3-6.8 4.6-9.5 6.8-1.6 1.2-3.5 3.4-5.5 5.7 1.4-2.3 2.7-4.3 3.8-5.6z" fill="#f5f7f9" opacity=".08"/><path d="m603.3 92c1.5 7.4 2.9 15 1.6 22.4-.5 3-1.5 5.9-2.4 8.8-1.1 3.8-1.7 6.1-2.7 9.9.8-.5-.8 1.8-1.6 3.1-.9 1.4-2.2 3.2-3.2 1.7-1.2-1.7-2.5-3.6-3-5.6-.6-2.4 0-6.4 0-8.9-.1-6.5-.1-13.1 2.1-19.2 1.8-4.7 5-9.1 9.2-12.2z" fill="#00c671"/><path d="m653.1 129.3c-8.4-.3-16.7 0-24.9 2.3-7.7 2.2-14.7 5.8-21.1 10.7-.3.3-.7-.3-.3-.6 6.4-4.8 13.6-8.5 21.3-10.6 8.3-2.3 16.5-2.5 25-2 .1 0 .1.2 0 .2z" fill="#1e2022"/><path d="m632.7 106.7c-6.8 3.2-13 7.4-18.4 12.7-5.8 5.7-9.7 12.5-14 19.2-.1.2-.4 0-.3-.2 7.4-13.9 17.9-25.7 32.7-31.9 0 0 .1.2 0 .2z" fill="#1e2022"/><path d="m602.9 94.9c-4.4 13.2-9.6 25.8-6.6 40 .1.3-.4.4-.5.1-2.8-13.5 1.3-27.9 6.9-40.2.1 0 .2.1.2.1z" fill="#1e2022"/><path d="m647 134c-.9-.9-1.8-1.9-2.8-2.7s-2.2-1.3-3.3-2c-.1 0 0-.2.1-.2 2.3.9 4.7 2.8 6 4.9.1 0 0 .1 0 0z" fill="#1e2022"/><path d="m640.2 137.4c-2.4-4.3-5.8-5.5-10.4-6.1-.4 0-.3-.5.1-.5 4.3.6 8.7 1.9 10.3 6.6z" fill="#1e2022"/><path d="m631.8 137.9c-2.7-2.1-5.5-5.3-9.3-4.3-.2.1-.3-.2-.1-.3 3.8-1 6.9 2.1 9.5 4.5 0 .1-.1.2-.1.1z" fill="#1e2022"/><path d="m623.5 142.4c-2.5-3.2-6.2-6.1-10.4-3.9-.2.1-.5-.2-.2-.4 4.2-2.2 8.5.6 10.6 4.3z" fill="#1e2022"/><path d="m642.8 124c-.6 2.7-2.9 4.3-5.1 5.8-.2.1-.3-.2-.1-.3 2.2-1.4 4.3-2.9 5-5.6.1-.1.2-.1.2.1z" fill="#1e2022"/><path d="m633.9 124.5c-1 2.6-2.7 4.9-4.7 6.8-.2.2-.4-.1-.2-.2 2-1.9 3.5-4.1 4.9-6.6-.1 0 0 0 0 0z" fill="#1e2022"/><path d="m626.3 127.5c-.5 1.3-1.1 2.4-1.9 3.5-.6.8-1.6 2.3-2.5 2.6-.1 0-.2 0-.2-.1l-.1-.1c-.1-.1-.1-.3 0-.4 0 0 .1 0 .1-.1h.3l.1.1c.1.1.1.2-.1.2-.3 0 1-1.4 1-1.4.4-.4.8-.8 1.1-1.3.8-1 1.5-2.1 2.1-3.2.1.1.2.2.1.2z" fill="#1e2022"/><path d="m620 130.7c-1.7 2.8-4.2 5.3-6.8 7.3-.3.2-.7-.2-.4-.4 2.7-2.1 4.8-4.5 7-7.1.1 0 .3.1.2.2z" fill="#1e2022"/><path d="m628.8 115.6c-4.7-.3-8.7-.1-12.9 2.5-.3.2-.5-.3-.3-.4 3.7-2.4 8.9-3.8 13.2-2.3.1 0 .1.2 0 .2z" fill="#1e2022"/><path d="m621.4 123.5c-2.3 0-4.4-.1-6.7.5-2 .5-3.9 1.2-5.9 1.9-.3.1-.4-.3-.1-.4 3.9-1.5 8.4-3.2 12.7-2.1.1 0 .1.1 0 .1z" fill="#1e2022"/><path d="m612.7 130.3c-1.6.1-3.2.2-4.7.5-1.8.3-3 1.2-4.2 2.6-.2.2-.5-.1-.3-.3 1.1-1.3 2.2-2.2 3.9-2.6s3.5-.5 5.3-.4c.1 0 .1.2 0 .2z" fill="#1e2022"/><path d="m619.1 110.2c-.1 1.7-1 3.4-1.7 4.9-.4 1-.8 2.7-2.1 2.9-.1 0-.2-.1-.1-.2 2.2-1.8 2.3-5.3 3.7-7.7.1 0 .2 0 .2.1z" fill="#1e2022"/><path d="m612.1 112.3c-.4 4.7-1.9 9.3-3.5 13.7-.1.2-.4.1-.3-.1 1.7-4.5 2.7-9 3.8-13.6-.2-.1 0-.1 0 0z" fill="#1e2022"/><path d="m604.5 122.1c0 4-1 8-1.6 11.9 0 .3-.5.2-.5-.1.7-3.9 1.3-7.9 1.9-11.8 0-.1.2-.1.2 0z" fill="#1e2022"/><path d="m604.3 102.4c-2.8 3.2-5.1 6.6-6.9 10.4-.1.3-.6 0-.5-.3 1.8-3.9 4.1-7.4 7.2-10.4.1-.1.3.1.2.3z" fill="#1e2022"/><path d="m595.2 103.1c1.3 3 1.6 6.9 1.8 10.1 0 .3-.4.3-.5 0-.1-1.9-.3-3.7-.6-5.6-.3-1.5-.7-3-.9-4.5 0-.1.1-.1.2 0z" fill="#1e2022"/><path d="m600.3 114.5c-2.1 3.3-3.4 6.5-4.9 10.1 0 .1-.2 0-.2-.1.5-3.6 2.6-7.4 4.9-10.2.2 0 .3.1.2.2z" fill="#1e2022"/><path d="m595.1 124.8c-.9-2.3-1.7-4.6-3-6.7-.1-.2.2-.3.3-.2 1.2 2.1 2.4 4.5 2.7 6.9z" fill="#1e2022"/><path d="m828.3 130.5c-3.7 3.1-9.2 2.6-12.2-1.1-3.1-3.7-2.6-9.2 1.1-12.2 3.7-3.1 9.2-2.6 12.2 1.1 3.1 3.7 2.6 9.2-1.1 12.2z" fill="#fcd991"/><path d="m825.1 122.2-2.8 5.9c0 .1-.1.1-.2.1 0 0 0 0-.1 0s-.2-.1-.2-.3l1-4.1-2.1.5s0 0-.1 0-.1 0-.2-.1-.1-.1-.1-.2l1-4.2c0-.1.1-.2.2-.2h1.7c.1 0 .2.1.2.2v.1l-.9 2.4 2-.5h.1c.1 0 .1 0 .2.1.3.1.3.2.3.3z" fill="#fff"/><path d="m821.6 124.1c0-2.9-1.3-5.4-3.3-7.2-.4.2-.8.5-1.2.8-2 1.7-3 4-3.1 6.4.1 1.9.7 3.7 2 5.3.6.8 1.4 1.4 2.2 1.9 2.1-1.7 3.4-4.3 3.4-7.2z" fill="#231f20" opacity=".3"/><path d="m820.1 123c0 5.3-4.3 9.5-9.5 9.5-5.3 0-9.5-4.3-9.5-9.5 0-5.3 4.3-9.5 9.5-9.5s9.5 4.3 9.5 9.5z" fill="#377dff"/><path d="m813.1 126.3c0 .1 0 .2-.1.2 0 0-.5.2-1.1.2-1.6 0-3-1-3.4-2.5h-.5c-.1 0-.2-.1-.2-.2v-.6c0-.1.1-.2.2-.2h.3c0-.2 0-.4 0-.6h-.4c-.1 0-.2-.1-.2-.2v-.6c0-.1.1-.2.2-.2h.5c.5-1.5 1.8-2.4 3.4-2.4.5 0 1 .1 1 .1s.1 0 .1.1v.1l-.2.8c0 .1-.1.1-.2.1 0 0-.4-.1-.7-.1-.9 0-1.6.5-2 1.3h2.5c.1 0 .1 0 .1.1v.1l-.1.6c0 .1-.1.1-.2.1h-2.6v.6h2.4c.1 0 .1 0 .1.1v.1l-.1.6c0 .1-.1.1-.2.1h-2c.3.8 1.1 1.3 2 1.3.5 0 .8-.1.8-.1h.1l.1.1z" fill="#fff"/><path d="m806.9 115.3c-3.3 1.4-5.7 4.6-5.9 8.4.2 3.2 2.1 6 4.7 7.6 4-2.9 5.4-8.3 3.3-12.9-.5-1.2-1.2-2.2-2.1-3.1z" fill="#231f20" opacity=".3"/><ellipse cx="797.9" cy="122.1" fill="#fec55e" rx="10.5" ry="10.5"/><path d="m804 118.2v6.9c0 .5-.4.9-.9.9h-9.1c-.5 0-.9-.4-.9-.9v-6.9c0-.5.4-.9.9-.9h9.1c.4 0 .9.4.9.9zm-10.3 0v1.3h9.5v-1.3c0-.1-.1-.2-.2-.2h-9.1c-.1 0-.2.1-.2.2zm9.5 7v-3.5h-9.5v3.5c0 .1.1.2.2.2h9.1c.1 0 .2-.1.2-.2zm-8.7-1.3h1.5v.7h-1.5zm2.2 0h2.2v.7h-2.2z" fill="#fff"/><path d="m788.4 126.5c.7 1.5 1.7 2.7 2.8 3.6.6-.8 1.2-1.8 1.5-2.8 1.4-4.1.2-8.5-2.9-11.2-1.5 1.8-2.4 4.1-2.4 6.5.1 1.3.4 2.6 1 3.9z" fill="#231f20" opacity=".3"/><path d="m790.7 125.6c-1.9 5.4-7.9 8.3-13.3 6.4s-8.3-7.9-6.4-13.3 7.8-8.3 13.3-6.4c5.5 2 8.3 7.9 6.4 13.3z" fill="#00c9a7"/><path d="m781.2 125.8v.9c0 .1-.1.2-.2.2h-.7c-.1 0-.2-.1-.2-.2v-.9c-1.2-.2-1.9-.9-2-1s-.1-.2 0-.2l.6-.7.1-.1h.1s.8.7 1.7.7c.5 0 1.1-.3 1.1-.9 0-.5-.6-.8-1.4-1.1-1-.4-2.2-.9-2.2-2.2 0-1 .8-1.8 1.9-2v-1c0-.1.1-.2.2-.2h.7c.1 0 .2.1.2.2v.9c1.1.1 1.7.7 1.7.7.1.1.1.1 0 .2l-.4.8-.1.1c-.1 0-.1 0-.1 0s-.7-.6-1.5-.6c-.7 0-1.1.3-1.1.8 0 .6.7.8 1.4 1.1 1 .4 2.1.8 2.1 2.1s-.8 2.2-1.9 2.4z" fill="#fff"/><path d="m639.2 134.3-6.4-.5 5.1-5.9z" fill="#fec55e"/><path d="m634.1 140.1-6.4-.5 5.1-5.8z" fill="#fec55e"/><path d="m646.6 145.9h-17.7l15.4-17.5z" fill="#fec55e"/><path d="m646.6 145.9-12.5-5.8 5.1-5.9z" fill="#fed17e"/><path d="m627.7 139.6 1.2 6.3 5.1-5.8z" fill="#fed17e"/><path d="m632.8 133.8 1.3 6.3 5.1-5.8z" fill="#fed17e"/><path d="m637.9 127.9 1.3 6.3 5.1-5.8z" fill="#fed17e"/><path d="m694.5 132.1s-.7.3 0 0zm6.3-6.2c-6.5-6.7-14.4-12.5-23.4-15-9-2.6-19.3-1.7-27.1 3.6 11.2 11.9 27.8 18.5 44.2 17.6 2.4.2 9.3.3 11.2-.9.5-.3-1-2.1-2.4-3.5-.4-.4-2-1.4-2.5-1.8z" fill="#00c671"/><path d="m703.4 127.7c-.4-.4-2-1.4-2.4-1.8-6.5-6.7-14.4-12.5-23.4-15-4.4-1.2-9-1.7-13.4-1.2 5.1.2 10.4 1.6 15 3.9 8.2 4.2 14.7 11 19.8 18.7 2.7 0 5.8-.3 7-1 .3-.5-1.4-2.1-2.6-3.6z" fill="#191c3c" opacity=".2"/><path d="m708.6 111.7c1.3 3.7 3.1 9.3 1.5 13-1.2 2.9-3.5 7.1-6.4 6.5-2.4-3.1-7.3-9.6-10.5-12.1-2.6-2.1-6.6-4.3-9.2-6.5-6.3-5.7-8.7-13.3-12.2-21 6.4.6 12.6 1.8 18.9 3.6 4 1.1 8.1 2.6 11.2 5.4 3.4 2.8 5.3 7 6.7 11.1z" fill="#00c671"/><path d="m695 119.3c-2.2-2.5-5.8-5.4-7.9-8-4.3-5.6-5.8-11.9-7.3-18.7-2.6-.4-5.2-.8-7.9-1 3.5 7.8 5.9 15.4 12.2 21 2.4 2.3 6.5 4.4 9.2 6.5 1.5 1.2 3.4 3.3 5.2 5.5-1.2-2.1-2.4-4.1-3.5-5.3z" fill="#f5f7f9" opacity=".08"/><path d="m711.8 91.5c2.2 5.8 2.1 12.2 2.1 18.4 0 2.4.6 6.3 0 8.6-.4 1.9-1.7 3.7-2.9 5.3-1 1.4-2.2-.3-3.1-1.7-.8-1.3-2.3-3.6-1.6-3.1-1-3.6-1.7-5.8-2.6-9.5-1-2.8-1.8-5.6-2.4-8.5-1.2-7.2.2-14.4 1.6-21.5 4 3.3 7.1 7.5 8.9 12z" fill="#00c671"/><path d="m655 115.6c8.1-.3 16.1 0 23.9 2.2 7.4 2.1 14.2 5.7 20.3 10.3.3.3.6-.3.3-.5-6.1-4.6-13.1-8.1-20.5-10.2-7.9-2.3-15.9-2.4-24.1-1.9-.1 0-.1.1.1.1z" fill="#1e2022"/><path d="m674.6 94c6.5 3.1 12.6 7.2 17.7 12.2 5.6 5.5 9.3 12 13.5 18.5.1.2.4 0 .3-.2-7.2-13.4-17.3-24.7-31.5-30.7 0 0-.2 0 0 .2z" fill="#1e2022"/><path d="m703.4 82.6c4.3 12.6 9.3 24.8 6.4 38.5-.1.3.3.4.4.1 2.7-13.1-1.2-26.9-6.8-38.6 0-.2-.2-.1 0 0z" fill="#1e2022"/><path d="m660.8 120.2c.9-.9 1.7-1.8 2.7-2.5 1-.8 2.1-1.3 3.2-1.9.1-.1 0-.2-.1-.2-2.2.7-4.5 2.6-5.8 4.6z" fill="#1e2022"/><path d="m667.4 123.4c2.3-4.1 5.6-5.3 10-5.8.3 0 .3-.5-.1-.4-4.1.5-8.4 1.8-9.9 6.2-.1 0 0 0 0 0z" fill="#1e2022"/><path d="m675.5 123.9c2.6-2 5.2-5.1 8.9-4.2.2.1.3-.3.1-.3-3.7-1-6.6 2.1-9.1 4.4-.1.1 0 .2.1.1z" fill="#1e2022"/><path d="m683.5 128.2c2.4-3.1 5.9-5.8 10-3.7.3.1.4-.3.2-.3-4-2.1-8.1.5-10.3 4-.1 0 .1.1.1 0z" fill="#1e2022"/><path d="m664.9 110.5c.5 2.6 2.8 4.2 4.9 5.6.2.1.3-.2.2-.3-2.1-1.4-4.2-2.8-4.9-5.3-.1-.2-.2-.1-.2 0z" fill="#1e2022"/><path d="m673.5 111c1 2.5 2.6 4.7 4.5 6.5.2.2.4-.1.3-.3-2.1-1.7-3.5-3.8-4.8-6.2z" fill="#1e2022"/><path d="m680.7 113.9c.4 1.2 1 2.3 1.8 3.3.6.8 1.5 2.2 2.4 2.5.1 0 .2 0 .3-.1l.1-.1c.1-.1.1-.3-.1-.3l-.1-.1c-.1-.1-.2 0-.3 0l-.1.1c-.1.1-.1.2.1.3.3.1-1-1.4-1-1.4-.3-.4-.7-.8-1-1.2-.8-1-1.5-2-2-3.1 0 0-.1 0-.1.1z" fill="#1e2022"/><path d="m686.8 117c1.6 2.7 4.1 5.1 6.5 7.1.3.3.7-.2.4-.4-2.6-2-4.6-4.4-6.8-6.8-.1-.1-.3 0-.1.1z" fill="#1e2022"/><path d="m678.4 102.5c4.5-.3 8.5-.1 12.4 2.4.3.2.5-.3.3-.4-3.5-2.3-8.6-3.7-12.7-2.3-.2.1-.2.3 0 .3z" fill="#1e2022"/><path d="m685.4 110c2.2 0 4.3-.1 6.4.4 1.9.4 3.7 1.1 5.7 1.8.3.1.3-.3.1-.4-3.8-1.4-8.1-3.1-12.2-2z" fill="#1e2022"/><path d="m693.8 116.6c1.5.1 3.1.3 4.5.5 1.7.3 2.9 1.2 4 2.5.2.2.5-.1.3-.3-1-1.2-2.1-2.1-3.7-2.5-1.7-.3-3.4-.4-5.1-.3 0-.1 0 .1 0 .1z" fill="#1e2022"/><path d="m687.7 97.3c.1 1.7 1 3.3 1.6 4.8.4 1 .8 2.6 2 2.8.1 0 .2-.1.1-.2-2.1-1.7-2.2-5.1-3.6-7.4 0-.2-.1-.2-.1 0z" fill="#1e2022"/><path d="m694.5 99.2c.4 4.5 1.8 9 3.4 13.2.1.2.4.1.3-.1-1.7-4.3-2.5-8.6-3.6-13.1z" fill="#1e2022"/><path d="m701.8 108.8c0 3.8 1 7.8 1.6 11.5.1.3.5.2.4-.1-.7-3.8-1.2-7.6-1.8-11.4 0-.2-.2-.2-.2 0z" fill="#1e2022"/><path d="m702 89.8c2.7 3.1 4.9 6.4 6.6 10 .2.3.6.1.4-.3-1.7-3.7-4-7.1-6.9-10-.1-.1-.3.1-.1.3z" fill="#1e2022"/><path d="m710.7 90.5c-1.3 2.9-1.6 6.6-1.7 9.8 0 .3.4.3.4 0 .1-1.8.3-3.6.6-5.4.3-1.5.7-2.9.9-4.4 0-.2-.2-.2-.2 0z" fill="#1e2022"/><path d="m705.8 101.3c2 3.1 3.3 6.3 4.7 9.8 0 .1.2 0 .2-.1-.5-3.5-2.4-7.2-4.7-9.8-.2 0-.3.1-.2.1z" fill="#1e2022"/><path d="m710.9 111.3c.9-2.3 1.6-4.4 2.9-6.5.1-.2-.2-.3-.3-.2-1.2 2.1-2.5 4.3-2.6 6.7-.2.1-.2.1 0 0z" fill="#1e2022"/><path d="m764.7 121.4c0-.1-.1-.3-.2-.3 0 0 0-.1-.1-.1-.3-.5-.8-1-1.3-1.2-1.6-1-3.9-1.7-5.1-1.9l3.1-.8v-.4l1.6.5c.4.2 1-.1 1.1-.5 0-.1 0-.2 0-.3.3 0 .7-.3.8-.6s0-.5-.1-.7c.3 0 .6-.3.7-.6s0-.6-.2-.9c.3-.1.4-.3.5-.5.2-.4-.1-1-.5-1.1l-.7-.3 6.6-10c.1-.2-.1-.3-.3-.3l-15.3 4.1-6.4-7v8.3l.4.3-.4.1v25.1h7.9c11.6-2.7 7.9-10.9 7.9-10.9z" fill="#191c3c" opacity=".3"/><path d="m711 123.9c1.1-1.6 2.4-3.5 2.9-5.3.5-2.3 0-6.2 0-8.6.1-6.2.1-12.6-2-18.3l1.1 4.9-.3 4.4-.3-.1-1.1-10.4c-1.7-3.9-4.3-7.4-7.7-10.1-.3 6.6-.4 21.2 2.5 25.7.5.9 1.5 1.6 2.6 2.2-2.7-1.2-5-2-6.5-2.5-.1 0-.3-.1-.3-.1h.1c-.1 0-.2-.1-.3-.1 0 0 0 0-.1 0s-.2-.1-.3-.1c0 0 0 0-.1 0s-.2-.1-.3-.1c0 0 0 0-.1 0s-.1 0-.2-.1c0 0 0 0-.1 0h-.1s0 0-.1 0c0 0 0 0-.1 0-.2 0-.3 0-.5.1-.1 0-.2 0-.2.1-.1 0-.2.1-.2.1-.4.2-.9.5-1.2.9-.8.8-1.4 1.8-1.7 2.9v.1.1c-.3 1-.3 2.1-.1 3.1.3 1.8 1.2 3.6 2.5 5 .1.1.1.2.2.2.3.3.5.5.9.8 1.6 1.3 3.3 2.7 4.8 3.8.2.2.4.3.6.4.3.2.5.3.7.5.3.2.5.3.7.5s.3.3.5.3c.1.1.3.2.3.3.2.2.3.3.4.3l-5.1.6c-1.2 0-2.3.8-2.8 1.8-.2.3-.3.8-.3 1.1v.1c0 .2 0 .3.1.5.1.4.3.8.4 1.1.5.8 1.5 1.3 2.5 1.3h1.7c.1 0 .2 0 .2-.1.1 0 .1 0 .2-.1.2-.1.3-.2.5-.3.1 0 .1-.1.1-.2s0-.1 0-.2c1.9-1 3.3-3.9 4.3-6.1 0-.1.1-.2.1-.3.7.5.9.3 1.2-.1zm1.1-14.2v.3c-.4-.3-1-.5-1.4-.7 0 0-.1 0-.1-.1h-.1c.6.2 1.1.3 1.6.5z" fill="#191c3c" opacity=".3"/><path d="m736.4 51.7c.4-1.4-.6-2.8-1.7-3.8-2.1-2-4.6-3.6-7.5-3.7-2.6-.2-5.8 1.6-7.6 3.5-1 1.1-1.8 2.5-2.6 3.8-.7 1.1-1 2.4-1.1 3.8-.1 1.6.6 3.2 0 4.8-.2.4-.5.9-.7 1.4-.4 1-.1 2.3.2 3.4.1.4.3.9.3 1.2 0 .7-.3 1.4-.5 2-.4 1.6.2 3.6 1.7 4.3.5.3 1.1.3 1.7.3.2 0 .4 0 .6-.1.5-.3.5-1 .9-1.7.3-.7 1.3-.9 2.1-.9s1.7.1 2.4-.3c1.9-1 1.5-4.2 3.2-5.3.8-.5 1.8-.5 2.5-1.1.9-.7 1-1.9 1.4-2.9.4-.9 1-1.6 1.7-2.3 1.5-1.8 2.5-4.1 3-6.4" fill="#191c3c"/><path d="m731.9 84.5-11.7-1.2-4.4-12.7 3.6-1.4 8.2.1 5.3 1.3z" fill="#ddb758"/><path d="m714.7 108.7h26.9v16.2h-26.9z" fill="#09324c"/><path d="m728.6 69.6s5 1.1 6.7 1.7c0 0 5.4.5 7.1 7.8l4.2 18.9 8.8 9.6-3.4 2.6-11.2-7.7c-.6-.4-1.1-1.1-1.3-1.8l-3.2-12.1.2 10s7.1 10.3 5 13.8l-27.1-1.5.8-14-3.2-13.7 1.8-11.7 5.6-2.1s-1.3 7.5 5.6 8.5c0-.2 6.1-1.9 3.6-8.3z" fill="#377dff"/><path d="m736.3 94-.1-5.6c-1.4 2.3-2.2 7-3.7 9.1-.3.3-.5.7-.6 1-.3.9.2 1.8.8 2.5s1.5 1.1 2.3 1.7c1.6 1.1 3 2.6 3.9 4.3.7 1.2 2.2 3.7 1.5 5.1h1c2.2-3.5-5-13.8-5-13.8z" fill="#191c3c" opacity=".3"/><path d="m743.4 102.5c-.6-.4-1.1-1.1-1.3-1.8l-5.8-12.2 1.7 6.8 1.4 5.4c.2.8.7 1.4 1.3 1.8l11.2 7.7.6-.5z" fill="#191c3c" opacity=".3"/><path d="m710.4 124.9s-4.6-3.3-8.2-6.4c-2.7-2.4-3.8-5.7-3.4-9.3v-.1s1.6-4 3.8-4c0 0 13.9 3.6 24 13.4l17.1 5.6-31.6 4z" fill="#093a66"/><path d="m712.8 125.4c-.3-.6-.7-1.2-1.3-1.6-.3-.3-.8-.3-1.1-.5-1.1-.7-1.6-2.2-2.4-3.1s-1.8-1.3-2.5-2.2c-.6-.8-1-1.7-1.4-2.6-.3-.9-.7-1.7-1-2.6s-.7-1.8-.7-2.8c0-.6 1-4.5 2-4.2-1.2-.3-1.8-.5-1.8-.5-.8 0-1.5.5-2.2 1.1-1.6 1.7-2.3 4-1.7 6.2.4 2.4 1.7 4.4 3.5 6 3.6 3.1 8.2 6.4 8.2 6.4l1.7 3.4 3.1-.4c-.5-1-1.6-1.2-2.2-2.3 0-.1 0-.2-.2-.3z" fill="#f7f9fa" opacity=".07"/><path d="m716.9 126.6v1l26.7-3.4-8-2.6-5.3-1.5z" fill="#191c3c" opacity=".3"/><path d="m755.3 117.6s6.6 1.4 7.2 3.8c0 0 3.7 8.2-7.7 10.8h-34.3v-5.7l16.3-4.4z" fill="#093a66"/><path d="m762.5 121.4c-.2-.7-1.1-1.7-1.7-1.7 0 .8.4 1.5.4 2.3 0 1-.5 2.1-1.2 2.9-1 1.1-2.5 1.8-3.9 2.5-.9.4-1.7.8-2.6 1.2-.8.3-1.6.7-2.4 1-2.8.7-5.8-.2-8.6.3-1.7.3-3.5.4-5.2.6-1.4.1-16.6 1-16.6.8v1h34.3c11.1-2.7 7.5-10.9 7.5-10.9z" fill="#191c3c" opacity=".3"/><path d="m720.6 126.6-2.2-1.7c-.7-.5-1.6-.8-2.4-.7l-10.7 1.2c-1.7 0-3 1.3-3 3v.1c0 1.7 1.3 3 3 3h15.4c-.1-.1-.1-4.9-.1-4.9z" fill="#ddb758"/><path d="m718.4 124.9c-.7-.5-1.6-.8-2.4-.7l-10.7 1.2c-1.7 0-3 1.3-3 3v.1c0 .3.1.7.2 1 .4-1.1 1.5-2 2.8-2l10.7-1.2c.9-.1 1.7.2 2.4.7l2.2 1.7v-2z" fill="#191c3c"/><path d="m708.3 127.5c0-1 .3-1.8.8-2.5l-3.9.4c-1.7 0-3 1.3-3 3v.1c0 1.7 1.3 3 3 3h7.1c-2.1 0-4-1.8-4-4z" fill="#191c3c"/><path d="m721.7 117.3 21.8-5.6 7.6 6.9-14.2 3.6z" fill="#f5f7f9"/><path d="m725.2 117.3 20-5.1 5.9 6.1-11.5 2.9z" fill="#dfe2ec"/><path d="m737.3 121.5-15.6-4.1v.3c0 .4.3.8.7 1l13.3 4.1c.3.1.8 0 1-.3z" fill="#d8d7d6"/><path d="m736.1 122.7 23-5.7v-1l-21.8 5.5z" fill="#bebcba"/><path d="m730.3 108.7 5.5 1.3c.2.1.4.2.6.3l2.7 2c.4.3.8.8 1 1.2l.9 1.5.4 2.9c-.5.4-1.2.1-1.3-.5l-.1-1.6c-.3-.5-1.4-1.7-1.9-1.7l-1.6-.3 1.2 2.1c.3.5-.1 1.2-.7 1.2l-3.1-3.7-5.4-2.2z" fill="#ddb758"/><path d="m736.9 121.8 7.9-13.9c0-.1.1-.1.1-.1l23.6-6.4c.2-.1.3.2.3.3l-9.8 14.7c0 .1-.1.1-.2.1l-21.8 5.5c0 .1-.2-.1-.1-.2z" fill="#f5f7f9"/><path d="m754.6 112.2c-.4 1-1.3 1.7-2.1 1.7-.7 0-1-.8-.6-1.7.4-1 1.3-1.7 2.1-1.7.8-.1 1.1.7.6 1.7z" fill="#dfe2ec"/><path d="m714.7 110.1c-2.4-1.2-4.6-2.3-6.5-3 .1.1.1.3.2.3 3.6 5.4 21.2 5.1 21.2 5.1l1.1-2.4-1.5-1.5h-14.6c.1.1.1 1.5.1 1.5z" fill="#191c3c" opacity=".3"/><path d="m716.7 70.2s-6.7 2.5-7.6 3c-.3.2-3.1 1.1-3.1 4.3-.1 3.1-1.1 23.2 2.4 28.6 3.6 5.4 21.3 6.1 21.3 6.1l1.9-3.8-16.9-7.4-1.9-17.5z" fill="#377dff"/><path d="m714.6 100.9-1.8-17.6-.3 1.1.8 17.2 17.7 7.9.5-1.2z" fill="#191c3c" opacity=".3"/><path d="m762.4 113.5-2.7-.9c-.4-.2-.7-.6-.5-1.1.2-.4.6-.7 1.1-.5l2.7.9c.4.2.7.6.5 1.1-.2.4-.5.7-1.1.5z" fill="#ddb758"/><path d="m762.1 114.9-3.1-1c-.4-.2-.7-.6-.5-1.1.2-.4.6-.7 1.1-.5l3.1 1c.4.2.7.6.5 1.1-.1.4-.6.6-1.1.5z" fill="#ddb758"/><path d="m761.6 116.2-2.5-.9c-.4-.2-.7-.6-.5-1.1.2-.4.6-.7 1.1-.5l2.5.9c.4.2.7.6.5 1.1-.2.4-.8.6-1.1.5z" fill="#ddb758"/><path d="m760.7 117-1.6-.5c-.4-.2-.7-.6-.5-1.1.2-.4.6-.7 1.1-.5l1.6.5c.4.2.7.6.5 1.1-.2.5-.7.7-1.1.5z" fill="#ddb758"/><path d="m738.2 115.6-.3-2.3 1.1-.1.3 3.4c-.4.1-1-.4-1.1-1z" fill="#ddb758"/><path d="m721 65.8h6.7v8.7h-6.7z" fill="#ddb758"/><path d="m727.8 69-6.8 1.6v-4.8h6.8z" fill="#191c3c" opacity=".3"/><path d="m737.1 54.8-.8-4.3c-1.7.7-3.7 1.1-5.5 1.3-.6.1-1.2.1-1.8.3-1.3.4-2.2 1.5-2.6 2.7-.3 1 .1 3.1-1.2 3.2-.6.1-1.1-.3-1.5-.8-.3-.4-.7-1-1-1.4-1-1-2.4-.3-2.4 1-.1.8.3 1.7.9 2.2.6.6 1.6.9 1.8 1.7.2.3.2.6.2 1 .1 1.1.4 2.3 1 3.3 1 1.5 2.5 2.4 4 3.1 1.7 1 3.5 1.5 4.3-.7.6-1.7 2.7-2.5 3.4-4.3.3-.9 0-1.7 0-2.7-.1-2 1.3-3.4 1.2-5.6z" fill="#efdcb4"/><path d="m735.7 60.6c.1-2.1 1.5-3.6 1.4-5.8l-.8-4.3c-.3.1-.6.3-1 .3l.7 3.9c.1 2.2-1.3 3.7-1.4 5.8-.1 1 .3 1.7 0 2.7-.6 1.7-2.7 2.5-3.4 4.3-.3.9-.8 1.3-1.4 1.5 1 .2 1.9-.1 2.4-1.5.6-1.7 2.7-2.5 3.4-4.3.4-.9 0-1.7.1-2.6z" fill="#191c3c" opacity=".1"/><path d="m716.3 59.8c.8.1 1.3 1 1.3 1.7 0 .8-.3 1.6-.4 2.4s-.3 1.7.2 2.3c.3.5 1 .9 1.3 1.5.5 1.1-.8 2.4-1 3.6-.2 1.9 2.5 3.3 2.3 5.2-.1.5-.3 1-.3 1.6.1 1 1.2 1.7 1 2.8-.1.3-.2.5-.1.8.1.2.3.3.5.3.5.2 1.2.3 1.5-.2.3-.6-.5-1.3-.3-2 1 .2 1.9.4 2.9.6.2.1.4.1.6-.1.1-.1.2-.2.2-.3.3-1.1-.8-2.1-1.4-3.1-.1-.2-.2-.3-.2-.4 0-.3.3-.6.7-.7.6-.3 1.2-.7 1.4-1.3.2-.8-.3-1.5-.8-2.2-.7-1-1.3-2.2-1-3.4.2-.8.8-1.6.7-2.4-.1-1.6-2.1-2.4-2.3-4-.1-.3 0-.8 0-1.1-.1-.8-.7-1.6-1.4-1.9-.7-.4-1.6-.6-2.4-.8-.6-.2-1.3-.3-1.9-.2-.6.2-1.2.6-1.2 1.3" fill="#191c3c"/><path d="m588.1 142.4h-81.1v-80.5c0-2.2 1.7-3.9 3.9-3.9h73.3c2.2 0 3.9 1.7 3.9 3.9z" fill="#fff"/><path d="m588.1 70.2v-9.4c0-1.6-1.3-2.8-2.8-2.8h-75.5c-1.6 0-2.8 1.3-2.8 2.8v9.4z" fill="#7c98d6"/><path d="m518.7 72.4h58.2v24.7h-58.2z" fill="#7c98d6"/><path d="m574.4 102h-53.3c-1.3 0-2.4 1.1-2.4 2.4 0 1.3 1.1 2.4 2.4 2.4h53.3c1.3 0 2.4-1.1 2.4-2.4.1-1.4-1-2.4-2.4-2.4z" fill="#e7eaf3"/><path d="m574.6 112.3h-53.3c-1.3 0-2.4 1.1-2.4 2.4 0 1.3 1.1 2.4 2.4 2.4h53.3c1.3 0 2.4-1.1 2.4-2.4 0-1.3-1-2.4-2.4-2.4z" fill="#e7eaf3"/><path d="m574.8 122.7h-53.3c-1.3 0-2.4 1.1-2.4 2.4 0 1.3 1.1 2.4 2.4 2.4h53.3c1.3 0 2.4-1.1 2.4-2.4 0-1.3-1.1-2.4-2.4-2.4z" fill="#e7eaf3"/><path d="m575 133.1h-53.3c-1.3 0-2.4 1.1-2.4 2.4 0 1.3 1.1 2.4 2.4 2.4h53.3c1.3 0 2.4-1.1 2.4-2.4 0-1.3-1.1-2.4-2.4-2.4z" fill="#e7eaf3"/><path d="m516.5 64.1c0 .9-.7 1.6-1.6 1.6s-1.6-.7-1.6-1.6.7-1.6 1.6-1.6c.9-.1 1.6.7 1.6 1.6z" fill="#fff"/><path d="m521.9 64.1c0 .9-.7 1.6-1.6 1.6s-1.6-.7-1.6-1.6.7-1.6 1.6-1.6c.9-.1 1.6.7 1.6 1.6z" fill="#fff"/><path d="m527.3 64.1c0 .9-.7 1.6-1.6 1.6s-1.6-.7-1.6-1.6.7-1.6 1.6-1.6c.9-.1 1.6.7 1.6 1.6z" fill="#fff"/><path d="m585.3 58h-3.6c1.6 0 2.8 1.3 2.8 2.8v81.6h3.6v-81.6c0-1.6-1.3-2.8-2.8-2.8z" fill="#97a4af" opacity=".2"/><path d="m370.2 139.9v-53.7-13.3l-13.6-13.3h-2.7v26 11.2 13.9 26.4c0 3.7 2.1 6.8 5.2 8.4h5.5c3 .1 5.6-2.4 5.6-5.6z" fill="#191c3c" opacity=".3"/><path d="m536.1 137.1v-54.5-14-6.6h-25.2-1.1c-1.6 0-2.8 1.3-2.8 2.8v1.1 8.3 72.2h20.6c4.7-.4 8.5-4.4 8.5-9.3z" fill="#191c3c" opacity=".3"/><path d="m315.5 99.8-9.9-9.9v33.6l10.4-20.4c.5-1.1.3-2.4-.5-3.3z" fill="#191c3c" opacity=".3"/><path d="m312.9 142.2-7.1-.6c.7 2.3 2.9 4 5.4 4h.5l1.2-1z" fill="#191c3c" opacity=".3"/><path d="m306.5 40.5h7.5v12.3h-7.5z" fill="#fec55e" transform="matrix(-.7512 -.6601 .6601 -.7512 512.4894 286.4806)"/><path d="m307.5 44.1 3.7 7.1 5.9-6.7-5.6-5z" fill="#191c3c" opacity=".3"/><path d="m308 43.5 7.2 6.3c2.2 1.9 5.6 1.7 7.5-.5l2.4-2.8 1.7.9.5-5.5c1.8-.1 3.4-1.1 4.3-2.7l-1.3-1.5-5.8-5.1c-2.2-1.9-5.5-1.7-7.4.5z" fill="#fec55e"/><path d="m297.1 131.5-1.8 4.3 3.1 5h-10.7v-3.9l3.2-6.1z" fill="#fec55e"/><path d="m236.6 131.2-3.2 2.9.5 5.3-8.8-4.4 1.6-3.1 5.1-3.7z" fill="#fec55e"/><path d="m293.6 80.4 19.4 19.4c.9.9 1.1 2.2.5 3.3l-16.1 31.5-7.8-1.9s7.2-23.5 11.1-29.3l-23.8-15.3z" fill="#377dff"/><path d="m293.6 80.4 3.1 3.2 2 18.6-21.8-14.1z" fill="#191c3c" opacity=".3"/><path d="m278.4 69.6s-7.2 2-10.2 6.9l-4 9.5-15.5 19.1s-9.6 4.8-19.9 23.3l6.4 5.7 20.5-20.5 26.4-22.6 10.7-6.2z" fill="#377dff"/><path d="m309.2 50.3 14 7 25.7 1 3.8-5 3-10.2c.6 1 .9 2.1.8 3.3l-.7 5.5-1 6.3-2.5 4.1-30.5 2-13.6-5z" fill="#fec55e"/><path d="m292.4 84.4c-1 .9-1.6 1.4-1.6 1.5-10.2-.9-14.3-10.4-15.7-15 1.9-.9 3.4-1.3 3.4-1.3z" fill="#191c3c" opacity=".3"/><path d="m306.6 44.9s-6.7-2.7-12.3 1.3c0 0-9.8 20.5-17.3 22.2 0 0 2.8 16.3 16.3 17.5 0 0 1.7-.6 3.3-2.9 5.9-8.6 12.9-17.7 15.7-29.3 0-.2.1-.3.1-.5z" fill="#377dff"/><path d="m288.5 138.1 1.6 1.7 4.7.1 2.5-3 5.4 4.6 7.7.7v2.4l-1.8 1.5h-21.9v-8.1z" fill="#377dff"/><path d="m233.7 135.2 1.7 4.5 2.1 2.4 4.3 1.6v2.1l-2.4.8h-9l-8-8.8 4-6.3 1.3 1v1.8l2.7 2.3z" fill="#377dff"/><path d="m322 64.4-10.3-3.8 2.4-6.1 7.7 2.1 1.4.7 25.7 1 .8-1h2.2l3.8-5 .3-.8-.1.4-1 6.4-2.1 3.4-12.9 1.5z" fill="#191c3c" opacity=".3"/><path d="m299.6 58.7 11.5 4.5 3.5-8.8-11.6-4.5c-2.4-1-5.2.2-6.1 2.7-1 2.4.2 5.1 2.7 6.1z" fill="#377dff"/><path d="m314.1 55.5 10.3 2.8h27.5l3.8-5 3-10.2c.6 1 .9 2.1.8 3.3l-.7 5.5-.9 5.9c0 .3-.2.6-.3.9l-2.3 3.7-31.7 3.8-12.3-3.8z" fill="#fec55e"/><path d="m286.8 144.8 10.9-4h-10.9z" fill="#296ad3"/><path d="m222.9 137 2.8 3 8.3-.2-6.3-2.8-2.9-3z" fill="#296ad3"/><path d="m308.4 35.5c.2-.2.4-.5.5-.7.7-1 1.2-1.8 1.6-2.9.2-.6.4-1.2.8-1.6 1.3-1.4 3.9-2 5.7-2.4 2.4-.4 4.8-1.9 7.1-1.1.7.3 1.3.7 2 1.2 1.4 1 2.9 1.9 3.8 3.4.4.6.5 1.2 1.1 1.6.5.4 1.2.6 1.5 1.2.8 1.2.3 2.7-.1 4-.4 1.2-.9 2.5-1.3 3.7-.9-.5-1.2-1.5-1.7-2.3-.8-1.2-3.7-3.3-5.2-2.7-1 .4-1.3 1.6-2 2.3-.8.8-2.1 1.1-2.7 2.1-.4.6-.5 1.6-1.2 1.8.3-.1.4-2.1.4-2.4 0-.8.2-1.4.3-2.2.1-.5 0-1-.3-1.3-.2-.2-.5-.2-.7-.4-.1-.1-.2-.2-.3-.2-.2-.1-.5 0-.7.1-1.3.6-1.3 1.7-1.4 3-.2.1-.4-.1-.6-.2s-.3-.1-.5-.1c-.9-.1-1.8-.2-2.6.4-.9.7-1.3 1.5-1.7 2.5-.2.4-.5.9-1 1.1-.2.1-.4.1-.6.1-.4 0-.8 0-1.2 0-.2 0-.4-.1-.5-.2-1.2-.9.2-2.6 0-3.7-.1-.4-.3-.7-.6-.9.4-.3 1.2-.4 1.5-.8.2-.2 0-1.8-.3-1.6.2-.1.5-.3.7-.4 0-.1.1-.2.2-.4z" fill="#191c3c"/><path d="m304.2 69.2c-1.4 1.4-2.3 4.9-3.2 6.7 1.3-1.1 2.6-3.8 4-5.3.6-.9 1.1-1.8 1.7-2.7-.9.2-1.7.5-2.5 1.3z" fill="#191c3c" opacity=".15"/><path d="m304 66.1c.4.2 2.1 1.1 2.8 1.5.8-1.4 1.5-2.7 2.1-4.2-.2.1-.5.3-.6.3-.3.2-.2.5-.1.8-.2 0-.3.1-.5.1-.4.1-.6.5-.5.8-.4.1-.8.3-1.3.4-.4.2-2.5 0-1.9.3z" fill="#191c3c" opacity=".15"/><path d="m300.5 59.4c-.4-.4-.8-.9-1.3-1.5-.5-.7-.7-.6-.2.1.8 1.1 2.1 3.3 3.1 4.2.4.4-.8-1.2-.7-1.8 2.1 1.3 5.2 2.3 7.5 2.8.1-.1.1-.3.2-.4-2.8-.6-5.3-2-7.7-3.7-.2-.3-.7-.1-.9.3z" fill="#191c3c" opacity=".15"/><g fill="#191c3c" opacity=".2"><path d="m266.6 88.4c.5.1.8-.7.4-1.1-.3-.3-.5-.4-.7-.6.1-.1.3-.1.4-.2.2-.1.2-.2.3-.4.3-.2.3-.7-.1-1-1-.7-1.5-1.2-1.8-1.5l-.4 1c0 .1.1.1.1.2-.3.3-.4.8 0 1-.1.1-.2.2-.4.3-.4.2-.4.6-.2.9-.5 0-.9.1-1.2.2l-4.4 5.4c-2.6 4.2-6.6 6.8-7.8 11.4-.1-.1-.2-.2-.3-.3-.4-.4-1-.1-1.1.4 0 .4-.3.6-.7.7l-.1.1s-1.4.7-3.8 2.7c1.2 0 2.3.1 3.5.2.5.1.8-.6.5-.9-.1-.2-.2-.3-.3-.4.3.1.7.1 1 .2.4.2.9 0 .9-.5 0-.1 0-.3 0-.4.4.5 1.1.3 1.2-.3.5-4.6 4.7-7.7 7.2-11.2 2.3-2.8 3.3-6.4 7.8-5.9z"/><path d="m268.2 76.4-2.9 6.8c.3 0 .8.1 1.3.2.4.1.7-.4.6-.8-.4-1.9.4-4.3 1.2-6.4 0 .1-.1.1-.2.2z"/></g><path d="m303.1 103.7c.5 0 .9-.3 1.4-.3s1.4.1 1-.2c-.8-.6-1.5-.8-2.4-.8.7-.2 1.4-.4 2-.5.7-.1.5-.4-.2-.3-1.1.1-2.6-.4-3.8.2-.6.2-1.1.4-1.7.7l1.3.8c-.1.2-.2.3-.3.5.1 0-.4 1.5-1.1 2-.4.7-.7 1.5-1.1 2.4 1.5-1.3 3.2-2.3 5-3.2.4-.1 0-1-.1-1.3z" fill="#191c3c" opacity=".3"/><path d="m588.1 88.7v-14.5-8.3-1.1c0-1.6-1.3-2.8-2.8-2.8h-1.1-2.5-5.5v.3l1.2 8.4 1.6-.5-.6 1.1-12.6 25-.5 39.9h.2l-3.9 2.5-6.2 2.3c-1.5.8-2.7 2-3.3 3.6l-.3.8h-.6v1.1h23.9v-1.1h-1.1v-8.4h-.3v-.9h.8l.8-30v-1.8-1.7l11.7-16.5zm-21.8 49.5h-.4v-2.1h.4z" fill="#191c3c" opacity=".3"/><path d="m568.8 132.4h7.5v8.1h-7.5z" fill="#fec55e"/><path d="m609.8 130.6h7.5v8.1h-7.5z" fill="#fec55e" transform="matrix(.962 -.273 .273 .962 -13.4565 172.5864)"/><path d="m582.1 69.1-13.7 27.1-.5 39.9h9.2l.8-33.5 14-20z" fill="#377dff"/><path d="m581 71.3 3.4 6.4.7 14.7 6.8-9.8-9.8-13.5z" fill="#30334f" opacity=".3"/><path d="m582.1 69.1-.4.7 4.2 7.9 10.6 25c.7 1.6 1.7 3.2 2.9 4.5l10.2 28.3 8.1-.9-5.2-22c-.9-4-2.4-8-4.6-11.5-.6-.9-1-1.8-1-2.6l-3.8-23.2.6-2.5c.6-2.2.4-4.6-.5-6.7l-1-2.3z" fill="#377dff"/><path d="m567.1 32.7-9.2 13.6c-.3.4-.8.7-1.3.8l-16.1 2.1c-.8.1-1.5-.3-1.8-1l-2.8-5.8v-3.8c0-1.1-.9-2-1.9-2v11.3l2.7 3.9c.3.4.7.7 1.2.7l19.8 1.6c.9.1 1.9-.3 2.5-1l16.9-19.1z" fill="#e5ac53"/><path d="m564.3 21.8h7.3v7.6h-7.3z" fill="#fec55e" transform="matrix(.848 -.5301 .5301 .848 72.7883 304.9116)"/><path d="m570.7 21.9-5.6 6-2.3-3.6 6.2-3.9z" fill="#191c3c" opacity=".3"/><path d="m559.4 10.4v2.9l.4.8s-.4 2-2.4 2.9c0 0-.4 1.6 1.6 1.5v3.7c0 1.3 1 2.4 2.3 2.4h5.9c1.6 0 3-1 3.5-2.5l2.7-8-1.1-4.6c.1-.2-9.3-3.4-12.9.9z" fill="#fec55e"/><path d="m565.4 37.3 2.2-5.4-.8-1.2 7.8-5.1 6.3 2.3c1 .4 1.8 1.1 2.3 2l8.7 17.4c.1.2.2.3.3.4l11 15.9-23.3 7-1.7-12c-.1-.6-.4-1.1-.8-1.6l-11-13.1z" fill="#377dff"/><path d="m554.4 145.3.3-.8c.6-1.5 1.8-2.8 3.3-3.6l6.2-2.3 4.2-2.6v2.2l4.8-.1 2-1.1h1.4v8.3z" fill="#377dff"/><path d="m553.8 145.3h23.9v1.3h-23.9z" fill="#191c3c"/><path d="m599.9 145.7.3-1.2c.7-1.5.7-1.5 1.8-2.5l5-3.3 3.2-3.2.5 2 4.3-1.1 1.5-1.4 1.2-.3 1.8 7.4-17.3 4.2z" fill="#377dff"/><path d="m620.8 142.9-14.8 3.6-1.8-.8 16.3-3.9z" fill="#191c3c"/><path d="m599.4 146.5 6.6.1v-1.3h-6.6z" fill="#191c3c"/><path d="m569.5 4.1c-1.1-.2-2.3-.1-3.4.2-.7.2-1.2.7-1.9.9-.8.2-1.7 0-2.5 0-.5 0-1.1 0-1.6.1s-1 .5-1.3 1c-.2.5-.2 1-.1 1.5.1.8 0 1.8.5 2.6.4.7 1.1.8 1.8 1 .3.1.7.2.9.4.9.7.9 2.2 1.9 2.8.6.4 1.6.4 2.1 1 .4.5.3 1.2.4 1.8.1.8.7 1.5 1.5 1.8.2.1.4.1.6.3.1.1.2.3.3.5.3 1.1-.2 2.3.5 3.2.5.6 1.2.6 1.8 1 .8.5.6 1 .6 1.9 0 .7 0 1.4-.2 2-.3.8-1 1.3-1.7 1.9.6-.3 1.3-.5 1.9-.7-.1 1.5-.2 3.1-.5 4.6.9-.5 1.4-1.4 1.9-2.3.3-.6.9-1.2 1.5-1.2.2.5.5 1 .9 1.4.3-.9.8-1.9 1.5-2.6.4.6.8 1.2 1.3 1.7.5.6.9 1.3.7 2 .1-.7.4-1.5.8-2.1 1.7 1.6 3.5 3.2 5.7 3.8.2-1.5-.8-2.8-1.4-4.2-.4-.7-.9-1.7-1-2.5 0-.7.4-1.3.2-2.1-.4-1.4-2.2-2-2.5-3.5-.1-.6.1-1.3-.1-1.9-.2-.7-.8-1.1-1.2-1.6-.6-.8-.7-1.7-.8-2.6-.1-.8-.5-1.1-.8-1.8-.6-1.4 1.1-3.1-.7-4.2-.3-.2-.6-.3-.9-.5-.3-.3-.5-.7-.6-1.1-.4-.9-.9-1.8-1.5-2.7-.2-.3-.4-.6-.7-.8s-.7-.2-1-.3c-.5-.1-1-.5-1.5-.7-.5.3-.9.1-1.4 0z" fill="#dd931d"/><path d="m576.9 36.5c-1.3.6-2.7 1.7-2.3 3.1-1.6.4-1.9 2-3.6 2.9-.3.2-.4.6-.2.8-.3.1-.7.3-1 .4s-.3.4-.3.6c-.6.4-1.1.8-1.5 1.4l.8 1c.5-.7 1-1.9 1.9-2.3.2-.1 1-1 1-1.2.6-.2.7.8.7.2 0-.2 0-.4-.1-.5 1-.9 1.5-1.8 2.6-1.8.4 0 .5-.4.2-.8-.9-1.3 1.2-3.5 1.9-3.8.8-.1.6-.4-.1 0z" fill="#30334f" opacity=".1"/><path d="m565.4 37.3-7.6 10.9c-.3.4-.8.7-1.3.8l-16.1 2.1c-.8.1-1.5-.3-1.8-1l-2.8-5.8v-3.8c0-1.1-.9-2-1.9-2v11.3l2.7 3.9c.3.4.7.7 1.2.7l19.8 1.6c.9.1 1.9-.3 2.5-1l12.9-13.8z" fill="#fec55e"/><path d="m573.7 52.7c.1-.3.2-.7.3-1 .2-.4 0-.7-.3-.9 0-.6-1-.3-.9-.9 0-.3.9-1.6.6-1.7.2-.6-.3-.8-.1-1.3.2-.4.4-1.4.5-1.9.1-.8-.4-.9-.5-.1 0 .3-.1.5-.2.8 0 .1-.1.2-.1.2-.4 1.3-1.3 2.2-2.4 3l.8.9c.1-.1.2-.1.3-.2 0 .1-.1.3-.1.4z" fill="#30334f" opacity=".1"/><path d="m581.8 56.8c.3-.4-.2-.1-.7.1-.2.1-.7.2-1.2.2-.7.1-1.5-.2-1.8-.8.4-.1 1.8-1.2 2.2-1.3.8-.2.8-.4 0-.2-1.4.3-2.7.6-4.1 1l1.1 1.4c.3.4.5.8.7 1.3 0 0 .1 0 .1-.1 0 .1-.1.1-.1.2s.1.1.1.2l.5 3.6c.1-.1.2-.2.3-.4.2-.6.4-1.3.6-1.9.1-.4-.1-.6-.4-.7.7-1.1 2-1.5 2.7-2.6z" fill="#30334f" opacity=".1"/><path d="m601.7 78.4c1.4.3 2 1.6 2.4 3l-.8-4.8h-.1c-.1 0 .1-.5 0-.8h.1l-.1-.3.4-1.6c-.8.8-2.2 1.2-3.2 1.9-.2.1-.3.3-.3.5-.5.2-1 .3-1.5.5-.6.2.8.7 1.6.6.8 0 .3.5 1.1.5 0 .2.2.4.4.5z" fill="#30334f" opacity=".3"/><path d="m608.7 102.6c-.1 0-.2-.2-.2-.3-.2-.4-.4-.7-.6-1.1-.3-.1-.5-.5-.4-.6-.2-.4-.4-.8-.5-1.2-.1 0-.2 0-.2 0s.1 0 .1-.1c0 0 .1-.1.1-.1 0-.2-.1-.4-.1-.6l-.3-1.8c-.2.6-.6 1.1-1.2 1.6-.2.1-.3.2-.3.4-.8.5-1.6.9-2.3 1.4-.7.4.8.4 1.5.1.5-.2 0 .6.5.5 0 .2.2.5.4.5.4.2.9.3 1.3.5-.4.2-.3 1-.8 1.3s-.9.6-.2.6c1 0 2.3-.2 3.2.2.3.1.6.2.9.3-.3-.6-.6-1.1-.9-1.6z" fill="#30334f" opacity=".3"/><path d="m576.2 100.7c-.6.2-.6 1.2.1 1.2-1.1.5-2.1 1-3.1 1.6-.6.3.7.3 1.4 0 1-.3 1.6.1 2.5.7-.4 0-.8 0-1.3.1-.8.1-.8 1.2 0 1.2.4 0 .9 0 1.4.1 1 .3.2.1.7.4l.1-2.9c-.1-.2-.3-.3-.5-.4.2-.1.4-.2.6-.3l2.3-3.3c-.1 0-.2.1-.3.2-1 1.1-2.6.9-3.9 1.4z" fill="#30334f" opacity=".3"/><path d="m588.8 48.7c1.8-1.4 1.2.1 1.8-.3-.1.2-1 1.2-1.1 1.3-.3.5 1 .2 1.5.1h.1c-.1.1 0 .6-.1.6-.5.4-.1.7.5.6 1.2-.2 2.1-.2 3.2.4l-2.1-3.1c-.2 0-.4-.3-.3-.4l-.1-.2c-.1-.1-.2-.3-.3-.4l-.4-.7c-.2.1-.3-.2-.2-.5l-1.8-3.7c-.1.2-.2.4-.1.7.6 1.1 1 1.9.4 3.1-.5.9-1.3 1.7-2 2.5-.4.4.4.4 1 0z" fill="#30334f" opacity=".1"/><path d="m573.3 141.8c0 .9-.7 1.6-1.6 1.6s-1.6-.7-1.6-1.6.7-1.6 1.6-1.6 1.6.7 1.6 1.6z" fill="#6371c5"/><path d="m617 140.2c0 .9-.7 1.6-1.6 1.6s-1.6-.7-1.6-1.6.7-1.6 1.6-1.6 1.6.7 1.6 1.6z" fill="#6371c5"/><path d="m365.7 28.3h62.3c3 0 5.4 2.4 5.4 5.4v48.5s-1.5-1.9-2.5-3c-1.1-1.1-2.4-1.9-3.8-2.5s-3-.9-4.6-.9-3.2.3-4.6.9-2.7 1.5-3.8 2.5c-1.1 1.1-1.9 2.4-2.5 3.8s-.9 3-.9 4.6.3 3.2.9 4.6 1.5 2.7 2.5 3.8c1.1 1.1 2.4 1.9 3.8 2.5s3 .9 4.6.9 3.2-.3 4.6-.9 2.7-1.5 3.8-2.5c1.1-1.1 2.5-3 2.5-3v48.2c0 3-2.4 5.4-5.4 5.4h-62.3c-5.2 0-9.3-4.2-9.3-9.3v-99.6c-.1-5.2 4.1-9.4 9.3-9.4z" fill="#9fb9cc"/><path d="m524.7 146.5h-61.8c-3 0-5.4-2.4-5.4-5.4v-48.2-.8c-.6 1.4-1.5 2.7-2.5 3.8-1.1 1.1-2.4 1.9-3.8 2.5s-3 .9-4.6.9-3.2-.3-4.6-.9-2.7-1.5-3.8-2.5c-1.1-1.1-1.9-2.4-2.5-3.8s-.9-3-.9-4.6.3-3.2.9-4.6 1.5-2.7 2.5-3.8c1.1-1.1 2.4-1.9 3.8-2.5s3-.9 4.6-.9 3.2.3 4.6.9 2.7 1.5 3.8 2.5c1.1 1.1 1.9 2.4 2.5 3.8v-.8-48.5c0-3 2.4-5.4 5.4-5.4h61.8c5.2 0 9.3 4.2 9.3 9.3v99.6c.1 5.2-4.1 9.4-9.3 9.4z" fill="#9fb9cc"/><path d="m433.3 33.7c0-3-2.4-5.4-5.4-5.4h-3l-68.6 68.6v13.9l77-77z" fill="#fff" opacity=".1"/><path d="m356.3 58.2v27.4l57.4-57.3h-27.4z" fill="#fff" opacity=".1"/><path d="m534.1 82.6-63.9 63.9h-7.3c-1.8 0-3.4-.9-4.4-2.3l75.5-75.5v13.9zm0-25.2v-19.9c0-2.1-.7-4.1-1.9-5.6l-74.7 74.7v27.4z" fill="#fff" opacity=".19"/></svg>