<svg enable-background="new 0 0 439.8 228.5" viewBox="0 0 439.8 228.5" xmlns="http://www.w3.org/2000/svg"><g fill="#377dff" opacity=".15"><ellipse cx="426.6" cy="146.7" opacity=".5" rx="10.4" ry="10.4"/><path d="m287.7 17.2c0 7.5-6.1 13.5-13.5 13.5-7.5 0-13.5-6.1-13.5-13.5 0-7.5 6.1-13.5 13.5-13.5 7.4-.1 13.5 6 13.5 13.5z" opacity=".5"/><path d="m101.8 34.4c0 3.8-3.1 6.9-6.9 6.9s-6.9-3.1-6.9-6.9 3.1-6.9 6.9-6.9 6.9 3.1 6.9 6.9z" opacity=".5"/><path d="m344.1 47.5c0 3.8-3.1 6.9-6.9 6.9s-6.9-3.1-6.9-6.9 3.1-6.9 6.9-6.9 6.9 3.1 6.9 6.9z" opacity=".5"/><circle cx="179.8" cy="6.9" opacity=".5" r="6.9"/><path d="m439.8 176.9c0 1.6-1.3 2.8-2.8 2.8-1.6 0-2.8-1.3-2.8-2.8 0-1.6 1.3-2.8 2.8-2.8 1.6-.1 2.8 1.2 2.8 2.8z" opacity=".5"/><path d="m329.9 22.7c0 1.2-1 2.1-2.1 2.1-1.2 0-2.1-1-2.1-2.1 0-1.2 1-2.1 2.1-2.1s2.1.9 2.1 2.1z" opacity=".5"/><circle cx="122.1" cy="6.9" opacity=".5" r="2.8"/><path d="m25.9 67c0 2-1.6 3.7-3.7 3.7-2 0-3.7-1.6-3.7-3.7 0-2 1.6-3.7 3.7-3.7 2 .1 3.7 1.7 3.7 3.7z" opacity=".5"/><path d="m433.9 101.9c0 2-1.6 3.7-3.7 3.7-2 0-3.7-1.6-3.7-3.7 0-2 1.6-3.7 3.7-3.7s3.7 1.7 3.7 3.7z" opacity=".5"/><ellipse cx="58.8" cy="55.5" opacity=".5" rx="15.6" ry="15.6"/><path d="m12 183.3c0 2-1.6 3.7-3.7 3.7-2 0-3.7-1.6-3.7-3.7s1.6-3.7 3.7-3.7c2 0 3.7 1.7 3.7 3.7z" opacity=".5"/><circle cx="406.7" cy="47.5" opacity=".5" r="15.1"/><ellipse cx="12" cy="115.2" opacity=".5" rx="12" ry="12"/><path d="m424.6 227.4c0-28.2-6-55.1-16.8-79.3 3.9-8.1 6.1-17.1 6.1-26.7 0-34-27.5-61.5-61.5-61.5-6.4 0-12.5 1-18.3 2.8-30.2-19.2-66.1-30.4-104.6-30.4-4.8 0-9.6.2-14.3.5-8.4-6.3-18.9-10.1-30.2-10.1-21.4 0-39.7 13.4-46.9 32.3-14.8 7.9-28.5 17.6-40.7 28.8-4-.9-8.1-1.4-12.4-1.4-30.8 0-55.7 24.9-55.7 55.7 0 13.4 4.7 25.7 12.6 35.3-4.9 17.1-7.6 35.2-7.6 53.9z" opacity=".47"/><path d="m370.1 227c0-78.3-63.4-141.7-141.7-141.7s-141.7 63.4-141.7 141.7z" opacity=".47"/></g><path d="m368.8 202.1c-.1 0-.2.1-.3.1-3 1.4-4.5 1.2-7.4-.2-2.7-1.2-5.2-2.7-7.5-4.6-2.8-2.5-5-5.8-5.4-9.5-.1-.8-.1-1.7.4-2.4.7-.9 2.1-1.1 3.1-.7 1.1.4 1.9 1.2 2.8 2 .4.3.7.7 1.2.8s1 0 1.3-.4c.4-.7-.3-1.5-.9-2-1.4-1.2-2.7-1.8-4.1-2.9-1.8-1.3-3.5-2.9-4.5-4.9s-1.2-4.5-.2-6.5c.3-.6.8-1.2 1.3-1.5 1-.6 2.3-.6 3.5-.4 1.2.3 2.3.7 3.5.8 2.8.3 3.9-1.7 3.9-4.3 0-1.7-.6-3.4-.7-5.2-.2-3.1 1.3-6.4 4.1-7.7s6.7-.1 7.7 2.9c1.1 3.2-1.4 6.7.2 9.8.5 1 1.7 2.3 2.7 2.9 1.6 1 3.8-.2 5.6-.1.4 0 .8.1 1.1.4.2.2.3.5.3.8.4 2.2-.4 4.6-2 6.1-1.9 1.7-5.1 2.6-5.9 5.2-.5 1.7-.3 5.8 2.4 5.4 1-.2 1.7-1.1 2.6-1.5 1.2-.4 2.5.4 3 1.5s.4 2.5-.1 3.6c-.7 1.8-2.1 3.3-3.5 4.7-2.7 3.2-4.5 6-8.2 7.8z" fill="#00c9a7"/><path d="m364.9 163.5v64.5" fill="none" stroke="#1e2022" stroke-miterlimit="10"/><path d="m372.4 174.7-7.5 7.5-7.5-7.5" fill="none" stroke="#1e2022" stroke-miterlimit="10"/><path d="m372.4 189.7-7.5 7.5-7.5-7.5" fill="none" stroke="#1e2022" stroke-miterlimit="10"/><path d="m380.3 168.7c-.3-.3-.7-.3-1.1-.4-1.8-.1-4 1-5.6.1-.9-.6-2.1-1.9-2.7-2.9-1.2-2.2-.2-4.7 0-7.1-1 0-1.9.4-2.5 1.2-.7.9-.7 2.2-.6 3.4.6 5.2 3.7 9.8 7.6 13.3.3.3.7.6 1 .8.8-.5 1.6-1 2.2-1.5 1.7-1.5 2.5-3.9 2-6.1 0-.3-.1-.6-.3-.8z" fill="#191c3c" opacity=".3"/><path d="m399.6 182.8c-.1.1-.3.1-.4.2-4.2 2-6.4 1.7-10.4-.2-3.7-1.7-7.3-3.8-10.4-6.5-3.9-3.5-6.9-8.1-7.6-13.3-.1-1.2-.1-2.4.6-3.4.9-1.3 2.9-1.5 4.4-.9s2.7 1.7 3.9 2.8c.5.5 1 .9 1.7 1.1s1.5 0 1.8-.6c.5-.9-.4-2-1.2-2.7-1.9-1.6-3.8-2.6-5.8-4-2.6-1.8-4.9-4-6.3-6.8s-1.7-6.3-.3-9c.4-.8 1.1-1.6 1.9-2.1 1.4-.9 3.3-.9 4.9-.5s3.2 1 4.9 1.2c4 .4 5.5-2.4 5.4-6-.1-2.4-.8-4.8-1-7.3-.2-4.3 1.9-8.9 5.8-10.7s9.3-.1 10.7 4c1.5 4.4-1.9 9.4.3 13.6.7 1.4 2.4 3.3 3.8 4.1 2.2 1.3 5.3-.2 7.8-.1.6 0 1.2.1 1.6.5.3.3.4.7.5 1.1.6 3.1-.5 6.4-2.8 8.5-2.6 2.4-7.2 3.6-8.3 7.3-.7 2.3-.4 8.1 3.3 7.5 1.4-.2 2.3-1.6 3.6-2 1.6-.6 3.5.5 4.3 2.1.7 1.6.5 3.4-.1 5.1-1 2.5-3 4.6-4.9 6.6-3.9 4-6.5 7.9-11.7 10.4z" fill="#00c9a7"/><path d="m394.1 128.9v99.1" fill="none" stroke="#1e2022" stroke-miterlimit="10"/><path d="m404.6 144.5-10.5 10.5-10.4-10.5" fill="none" stroke="#1e2022" stroke-miterlimit="10"/><path d="m404.6 165.5-10.5 10.5-10.4-10.5" fill="none" stroke="#1e2022" stroke-miterlimit="10"/><path d="m21 228h25c0-2.1 1.7-3.8 3.8-3.8s3.8 1.7 3.8 3.8" fill="none" stroke="#1e2022" stroke-miterlimit="10"/><path d="m51.8 224.6c0-2.1 1.7-3.8 3.8-3.8" fill="none" stroke="#1e2022" stroke-miterlimit="10"/><path d="m439.1 228h-25c0-2.1-1.7-3.8-3.8-3.8s-3.8 1.7-3.8 3.8" fill="none" stroke="#1e2022" stroke-miterlimit="10"/><path d="m408.2 224.6c0-2.1-1.7-3.8-3.8-3.8s-3.8 1.7-3.8 3.8" fill="none" stroke="#1e2022" stroke-miterlimit="10"/><path d="m89.5 227.8s-.8.4 0 0zm7.2-7.1c-7.5-7.7-16.5-14.3-26.8-17.2-10.3-3-22.1-2-31 4.1 12.9 13.6 31.9 21.2 50.6 20.2 2.7.2 10.6.3 12.9-1 .6-.4-1.2-2.4-2.8-4-.5-.5-2.4-1.6-2.9-2.1z" fill="#00c671"/><path d="m99.6 222.8c-.5-.5-2.3-1.6-2.8-2.1-7.5-7.7-16.5-14.3-26.8-17.2-5-1.4-10.3-1.9-15.4-1.4 5.9.2 11.9 1.8 17.2 4.5 9.4 4.8 16.8 12.6 22.7 21.4 3.1 0 6.7-.3 8-1.1.5-.5-1.4-2.4-2.9-4.1z" fill="#191c3c" opacity=".2"/><path d="m105.6 204.5c1.5 4.3 3.5 10.7 1.7 14.9-1.4 3.3-4 8.1-7.3 7.4-2.8-3.6-8.4-11-12-13.9-3-2.4-7.6-4.9-10.5-7.5-7.2-6.5-10-15.3-14-24.1 7.3.7 14.5 2.1 21.6 4.1 4.6 1.3 9.3 3 12.8 6.2 3.9 3.4 6.1 8.1 7.7 12.9z" fill="#00c671"/><path d="m90 213.2c-2.5-2.9-6.7-6.2-9-9.2-4.9-6.4-6.6-13.7-8.4-21.5-3-.5-6-.9-9-1.2 4 8.9 6.8 17.6 14 24.1 2.8 2.6 7.5 5.1 10.5 7.5 1.7 1.4 3.9 3.8 6 6.3-1.4-2.3-2.8-4.6-4.1-6z" fill="#f5f7f9" opacity=".08"/><path d="m109.3 181.4c2.5 6.7 2.4 14 2.4 21.1 0 2.7.7 7.2 0 9.8-.5 2.2-2 4.3-3.3 6.1-1.2 1.6-2.5-.3-3.6-1.9-.9-1.5-2.6-4.1-1.8-3.5-1.2-4.1-1.9-6.7-3-10.9-1.1-3.2-2.1-6.4-2.7-9.7-1.4-8.2.2-16.5 1.8-24.7 4.6 3.6 8.2 8.4 10.2 13.7z" fill="#00c671"/><g fill="#1e2022"><path d="m44.2 209c9.3-.3 18.4 0 27.4 2.5 8.5 2.4 16.3 6.5 23.3 11.8.4.3.7-.3.4-.6-7-5.3-15-9.3-23.5-11.7-9.1-2.6-18.2-2.7-27.6-2.2-.2 0-.2.2 0 .2z"/><path d="m66.6 184.1c7.5 3.6 14.4 8.2 20.3 14 6.4 6.3 10.7 13.8 15.5 21.2.1.2.5 0 .3-.2-8.2-15.4-19.8-28.3-36.1-35.2 0 0-.1.1 0 .2z"/><path d="m99.6 171.1c4.9 14.5 10.6 28.5 7.3 44.1-.1.3.4.5.5.1 3.1-14.9-1.4-30.8-7.7-44.3-.1-.1-.2 0-.1.1z"/><path d="m50.9 214.2c1-1 2-2.1 3.1-2.9 1.2-.9 2.4-1.5 3.7-2.2.1-.1 0-.2-.1-.2-2.6.8-5.3 3-6.7 5.3-.1 0-.1 0 0 0z"/><path d="m58.4 217.9c2.6-4.7 6.4-6.1 11.5-6.7.4 0 .3-.6-.1-.5-4.8.6-9.7 2.1-11.4 7.2-.1 0 0 0 0 0z"/><path d="m67.7 218.5c3-2.3 6-5.9 10.2-4.8.2.1.3-.3.1-.3-4.2-1.1-7.6 2.4-10.4 5-.1.1 0 .2.1.1z"/><path d="m76.9 223.4c2.8-3.5 6.8-6.7 11.4-4.3.3.1.5-.3.2-.4-4.6-2.4-9.3.6-11.8 4.6 0 .1.1.2.2.1z"/><path d="m55.5 203.1c.6 3 3.2 4.8 5.6 6.4.2.1.3-.2.2-.3-2.4-1.6-4.8-3.2-5.6-6.1 0-.2-.2-.1-.2 0z"/><path d="m65.4 203.7c1.1 2.9 3 5.4 5.2 7.5.2.2.5-.1.3-.3-2.4-2.1-4-4.5-5.5-7.2z"/><path d="m73.7 207c.5 1.4 1.2 2.6 2.1 3.8.7.9 1.7 2.5 2.7 2.9.1 0 .2 0 .3-.1l.1-.1c.1-.1.1-.3-.1-.4l-.1-.1c-.1-.1-.2 0-.3 0l-.1.1c-.1.1-.1.2.1.3.4.1-1.1-1.6-1.1-1.6-.4-.5-.8-.9-1.2-1.4-.9-1.1-1.7-2.3-2.3-3.6 0 .1-.1.1-.1.2z"/><path d="m80.6 210.5c1.8 3.1 4.7 5.9 7.5 8.1.3.3.8-.2.5-.5-3-2.3-5.3-5-7.8-7.8-.1 0-.3.1-.2.2z"/><path d="m71 193.9c5.2-.3 9.7-.1 14.2 2.8.3.2.6-.3.3-.5-4-2.6-9.8-4.2-14.6-2.6-.1.1-.1.3.1.3z"/><path d="m79.1 202.5c2.5 0 4.9-.1 7.3.5 2.2.5 4.3 1.3 6.5 2.1.3.1.4-.3.1-.5-4.4-1.6-9.3-3.5-14-2.3 0 .1 0 .2.1.2z"/><path d="m88.7 210.1c1.7.1 3.5.3 5.2.6 2 .4 3.3 1.4 4.6 2.9.2.2.6-.1.4-.4-1.2-1.4-2.4-2.4-4.3-2.9-1.9-.4-3.9-.5-5.9-.4-.1 0-.1.2 0 .2z"/><path d="m81.6 187.9c.1 1.9 1.1 3.8 1.8 5.5.5 1.1.9 3 2.3 3.2.1 0 .2-.1.1-.2-2.4-2-2.5-5.9-4.1-8.5.1-.1-.1-.1-.1 0z"/><path d="m89.4 190.2c.5 5.2 2.1 10.3 3.9 15.1.1.2.5.1.4-.1-1.9-4.9-2.9-9.9-4.1-15 0-.1-.2-.1-.2 0z"/><path d="m97.8 201.1c0 4.4 1.1 8.9 1.8 13.2.1.3.6.2.5-.1-.8-4.4-1.4-8.7-2.1-13.1 0-.2-.2-.2-.2 0z"/><path d="m98 179.3c3.1 3.5 5.6 7.3 7.6 11.5.2.3.7.1.5-.3-2-4.3-4.6-8.1-7.9-11.5-.1-.1-.4.1-.2.3z"/><path d="m108 180.1c-1.5 3.3-1.8 7.6-2 11.2 0 .3.5.3.5 0 .1-2.1.3-4.1.7-6.2.3-1.7.8-3.3 1-5 .1-.1-.1-.1-.2 0z"/><path d="m102.4 192.6c2.3 3.6 3.8 7.2 5.4 11.2 0 .1.2 0 .2-.1-.6-4-2.8-8.2-5.4-11.2-.2-.1-.3 0-.2.1z"/><path d="m108.2 204c1-2.6 1.8-5.1 3.3-7.4.1-.2-.2-.4-.3-.2-1.4 2.3-2.8 4.9-3 7.6-.1.1-.1.1 0 0z"/></g><path d="m293 228h-140.8v-189c0-2.2 1.7-3.9 3.9-3.9h133c2.2 0 3.9 1.7 3.9 3.9z" fill="#fff"/><path d="m293 44h-140.8v-5.6c0-2.2 1.7-3.9 3.9-3.9h133c2.2 0 3.9 1.7 3.9 3.9z" fill="#19a0ff"/><path d="m166 39.9c0 .7-.6 1.2-1.2 1.2-.7 0-1.2-.6-1.2-1.2 0-.7.6-1.2 1.2-1.2.6-.1 1.2.5 1.2 1.2z" fill="#fff"/><path d="m170.6 39.9c0 .7-.6 1.2-1.2 1.2-.7 0-1.2-.6-1.2-1.2 0-.7.6-1.2 1.2-1.2.6-.1 1.2.5 1.2 1.2z" fill="#fff"/><path d="m175.2 39.9c0 .7-.6 1.2-1.2 1.2-.7 0-1.2-.6-1.2-1.2 0-.7.6-1.2 1.2-1.2.7-.1 1.2.5 1.2 1.2z" fill="#fff"/><path d="m217.5 107.6h51.3v13.5h-51.3z" fill="#e7eaf3"/><path d="m217.5 187.4h51.3v37.1h-51.3z" fill="#e7eaf3"/><path d="m179.2 215.1h31.6v9.4h-31.6z" fill="#e7eaf3"/><path d="m217.5 143.4h51.3v6.7h-51.3z" fill="#e7eaf3"/><path d="m228.7 145.7h34.5v2.2h-34.5z" fill="#fffffe"/><path d="m177.6 60.3h91.2v34.9h-91.2z" fill="#ffc107"/><path d="m152.2 44h140.8v16.3h-140.8z" fill="#377dff"/><path d="m192.9 56.9h-12c-.5 0-.9-.4-.9-.9 0-.5.4-.9.9-.9h12c.5 0 .9.4.9.9 0 .5-.4.9-.9.9z" fill="#fffffe"/><path d="m212.9 56.9h-14.5c-.5 0-.9-.4-.9-.9 0-.5.4-.9.9-.9h14.5c.5 0 .9.4.9.9 0 .5-.4.9-.9.9z" fill="#fffffe"/><path d="m233 56.9h-14.5c-.5 0-.9-.4-.9-.9 0-.5.4-.9.9-.9h14.5c.5 0 .9.4.9.9-.1.5-.5.9-.9.9z" fill="#fffffe"/><path d="m253 56.9h-14.5c-.5 0-.9-.4-.9-.9 0-.5.4-.9.9-.9h14.5c.5 0 .9.4.9.9 0 .5-.4.9-.9.9z" fill="#fffffe"/><path d="m267.9 56.9h-9.5c-.5 0-.9-.4-.9-.9 0-.5.4-.9.9-.9h9.5c.5 0 .9.4.9.9 0 .5-.4.9-.9.9z" fill="#fffffe"/><path d="m184.7 83.7h23v23h-23z" fill="#e7eaf3"/><path d="m186.8 85.8h18.8v18.8h-18.8z" fill="#f5f7f9"/><path d="m221 111.1h7.8v7.8h-7.8z" fill="#2d1582"/><path d="m179.2 146.2h10.4v10.4h-10.4z" fill="#f2b0ad"/><path d="m190.9 146.2h10.4v10.4h-10.4z" fill="#e7eaf3"/><path d="m202.6 146.2h10.4v10.4h-10.4z" fill="#377dff"/><path d="m179.2 157.4h10.4v10.4h-10.4z" fill="#377dff"/><path d="m190.9 157.4h10.4v10.4h-10.4z" fill="#2d1582"/><path d="m202.6 157.4h10.4v10.4h-10.4z" fill="#ffc107"/><path d="m179.2 168.6h10.4v10.4h-10.4z" fill="#ffc107"/><path d="m190.9 168.6h10.4v10.4h-10.4z" fill="#e7eaf3"/><path d="m202.6 168.6h10.4v10.4h-10.4z" fill="#f2b0ad"/><path d="m210.1 112.5h-30.2c-.4 0-.7-.3-.7-.7 0-.4.3-.7.7-.7h30.2c.4 0 .7.3.7.7 0 .4-.3.7-.7.7z" fill="#e7eaf3"/><path d="m238.4 113.2h-5.2c-.4 0-.7-.3-.7-.7 0-.4.3-.7.7-.7h5.2c.4 0 .7.3.7.7 0 .4-.3.7-.7.7z" fill="#2d1582"/><path d="m247.5 116.7h-14.4c-.4 0-.7-.3-.7-.7 0-.4.3-.7.7-.7h14.4c.4 0 .7.3.7.7 0 .4-.3.7-.7.7z" fill="#2d1582"/><path d="m268.1 125.5h-46.6c-.4 0-.7-.3-.7-.7 0-.4.3-.7.7-.7h46.6c.4 0 .7.3.7.7 0 .4-.3.7-.7.7z" fill="#e7eaf3"/><path d="m235.1 128.9h-13.5c-.4 0-.7-.3-.7-.7 0-.4.3-.7.7-.7h13.5c.4 0 .7.3.7.7-.1.4-.4.7-.7.7z" fill="#e7eaf3"/><path d="m226.6 132.8h-5c-.4 0-.7-.3-.7-.7 0-.4.3-.7.7-.7h5c.4 0 .7.3.7.7 0 .4-.4.7-.7.7z" fill="#196eff"/><path d="m217.5 156.1h51.3v13.5h-51.3z" fill="#e7eaf3"/><path d="m221 159.7h7.8v7.8h-7.8z" fill="#2d1582"/><path d="m238.4 161.8h-5.2c-.4 0-.7-.3-.7-.7 0-.4.3-.7.7-.7h5.2c.4 0 .7.3.7.7 0 .3-.3.7-.7.7z" fill="#2d1582"/><path d="m247.5 165.3h-14.4c-.4 0-.7-.3-.7-.7 0-.4.3-.7.7-.7h14.4c.4 0 .7.3.7.7 0 .4-.3.7-.7.7z" fill="#2d1582"/><path d="m268.1 174.1h-46.6c-.4 0-.7-.3-.7-.7 0-.4.3-.7.7-.7h46.6c.4 0 .7.3.7.7 0 .4-.3.7-.7.7z" fill="#e7eaf3"/><path d="m235.1 177.5h-13.5c-.4 0-.7-.3-.7-.7 0-.4.3-.7.7-.7h13.5c.4 0 .7.3.7.7-.1.4-.4.7-.7.7z" fill="#e7eaf3"/><path d="m226.6 181.3h-5c-.4 0-.7-.3-.7-.7 0-.4.3-.7.7-.7h5c.4 0 .7.3.7.7 0 .4-.4.7-.7.7z" fill="#196eff"/><path d="m210.1 117.4h-30.2c-.4 0-.7-.3-.7-.7 0-.4.3-.7.7-.7h30.2c.4 0 .7.3.7.7 0 .4-.3.7-.7.7z" fill="#e7eaf3"/><path d="m210.1 188.1h-30.2c-.4 0-.7-.3-.7-.7 0-.4.3-.7.7-.7h30.2c.4 0 .7.3.7.7 0 .4-.3.7-.7.7z" fill="#e7eaf3"/><path d="m210.1 194.6h-30.2c-.4 0-.7-.3-.7-.7 0-.4.3-.7.7-.7h30.2c.4 0 .7.3.7.7 0 .4-.3.7-.7.7z" fill="#e7eaf3"/><path d="m210.1 201.1h-30.2c-.4 0-.7-.3-.7-.7 0-.4.3-.7.7-.7h30.2c.4 0 .7.3.7.7 0 .4-.3.7-.7.7z" fill="#e7eaf3"/><path d="m199.1 207.6h-19.2c-.4 0-.7-.3-.7-.7 0-.4.3-.7.7-.7h19.2c.4 0 .7.3.7.7 0 .4-.3.7-.7.7z" fill="#e7eaf3"/><path d="m199.1 122.4h-19.2c-.4 0-.7-.3-.7-.7 0-.4.3-.7.7-.7h19.2c.4 0 .7.3.7.7 0 .4-.3.7-.7.7z" fill="#e7eaf3"/><path d="m198.6 140.4h-18.2c-.7 0-1.2-.5-1.2-1.2 0-.7.5-1.2 1.2-1.2h18.2c.7 0 1.2.5 1.2 1.2 0 .6-.5 1.2-1.2 1.2z" fill="#e7eaf3"/><path d="m225.8 146.8c0 .9-.7 1.6-1.6 1.6s-1.6-.7-1.6-1.6.7-1.6 1.6-1.6 1.6.7 1.6 1.6z" fill="#196eff"/><path d="m200.4 99h-9c0-1.2 1-2.2 2.2-2.2h4.5c1.3 0 2.3 1 2.3 2.2z" fill="#4d5068"/><path d="m198.2 96.8h-4.5c-.6 0-1.2.3-1.6.7.4.4 1 .7 1.6.7h4.5c.6 0 1.2-.3 1.6-.7-.4-.5-1-.7-1.6-.7z" fill="#272834"/><path d="m202.1 104.6h-12.3v-1.4c0-3.4 2.8-6.2 6.2-6.2 3.4 0 6.2 2.8 6.2 6.2z" fill="#f5f7f9"/><path d="m197.5 97.2v7.4h4.6v-1.4c0-2.9-2-5.3-4.6-6z" fill="#4d5068"/><path d="m194.4 97.2v7.4h-4.6v-1.4c0-2.9 2-5.3 4.6-6z" fill="#4d5068"/><path d="m196 101.1c-.8 0-1.5-.7-1.5-1.5v-3.2h3v3.2c0 .8-.7 1.5-1.5 1.5z" fill="#fedfaa"/><path d="m195.9 96.4h-1.4v3.2c0 .8.6 1.5 1.4 1.5z" fill="#feca71"/><path d="m195.8 87.3c-2 0-3.7 1.6-3.7 3.7v3.4c0 1.2.6 2.3 1.5 2.9.3.9 1.1 1.6 2.1 1.6s1.8-.6 2.1-1.5c1-.7 1.6-1.8 1.6-3.1v-3.4c.1-2-1.5-3.6-3.6-3.6z" fill="#fcd991"/><path d="m192.7 92.4c0 .3-.2.5-.5.5s-.5-.2-.5-.5.2-.5.5-.5.5.2.5.5z" fill="#fcd991"/><path d="m200 92.4c0 .3-.2.5-.5.5s-.5-.2-.5-.5.2-.5.5-.5.5.2.5.5z" fill="#fcd991"/><path d="m196.7 89.9h-4.3c0-2 1.7-3.7 3.7-3.7h4.3c0 2-1.7 3.7-3.7 3.7z" fill="#191c3c"/><path d="m197.1 86.2v.3c0 1.9-1.5 3.4-3.4 3.4h2c1.9 0 3.4-1.5 3.4-3.4v-.3z" fill="#474963"/><path d="m193.7 103.6c-.1 0-.2-.1-.2-.2v-5.3c0-.1.1-.2.2-.2.1 0 .2.1.2.2v5.3c0 .1-.1.2-.2.2z" fill="#fff"/><path d="m198.1 103.6c-.1 0-.2-.1-.2-.2v-5.3c0-.1.1-.2.2-.2.1 0 .2.1.2.2v5.3c0 .1-.1.2-.2.2z" fill="#fff"/><path d="m277.8 37.6h4.2v.7h-4.2z" fill="#fff"/><path d="m277.8 39.1h4.2v.7h-4.2z" fill="#fff"/><path d="m277.8 40.5h4.2v.7h-4.2z" fill="#fff"/><path d="m187 46.8h80.2v2.8h-80.2z" fill="#fff"/><path d="m334.9 71.7 5.8-3.3v-6.7c0-.5.4-.9.9-.9h67.6c.5 0 .9.4.9.9v21.2c0 .5-.4.9-.9.9h-67.6c-.5 0-.9-.4-.9-.9v-6.7l-5.8-3.3c-.4-.3-.4-.9 0-1.2z" fill="#377dff"/><path d="m358.7 79.5h-12.1c-.7 0-1.2-.5-1.2-1.2v-12.1c0-.7.5-1.2 1.2-1.2h12.1c.7 0 1.2.5 1.2 1.2v12.1c0 .7-.5 1.2-1.2 1.2z" fill="#fff"/><path d="m402.2 68.9h-35.7c-.8 0-1.4-.6-1.4-1.4 0-.8.6-1.4 1.4-1.4h35.7c.8 0 1.4.6 1.4 1.4 0 .8-.6 1.4-1.4 1.4z" fill="#fff"/><path d="m402.2 74.3h-35.7c-.8 0-1.4-.6-1.4-1.4 0-.8.6-1.4 1.4-1.4h35.7c.8 0 1.4.6 1.4 1.4 0 .8-.6 1.4-1.4 1.4z" fill="#fff"/><path d="m390.3 79.7h-23.8c-.8 0-1.4-.6-1.4-1.4 0-.8.6-1.4 1.4-1.4h23.8c.8 0 1.4.6 1.4 1.4 0 .8-.7 1.4-1.4 1.4z" fill="#fff"/><path d="m108.4 133.2-5.8-3.3v-6.7c0-.5-.4-.9-.9-.9h-67.6c-.5 0-.9.4-.9.9v21.2c0 .5.4.9.9.9h67.6c.5 0 .9-.4.9-.9v-6.7l5.8-3.3c.5-.4.5-1 0-1.2z" fill="#ffc107"/><path d="m84.6 140.9h12.1c.7 0 1.2-.5 1.2-1.2v-12.1c0-.7-.5-1.2-1.2-1.2h-12.1c-.7 0-1.2.5-1.2 1.2v12.1c0 .7.6 1.2 1.2 1.2z" fill="#fff"/><path d="m41.1 130.3h35.7c.8 0 1.4-.6 1.4-1.4 0-.8-.6-1.4-1.4-1.4h-35.7c-.8 0-1.4.6-1.4 1.4.1.8.7 1.4 1.4 1.4z" fill="#fff"/><path d="m41.1 135.7h35.7c.8 0 1.4-.6 1.4-1.4 0-.8-.6-1.4-1.4-1.4h-35.7c-.8 0-1.4.6-1.4 1.4.1.8.7 1.4 1.4 1.4z" fill="#fff"/><path d="m53.1 141.1h23.8c.8 0 1.4-.6 1.4-1.4 0-.8-.6-1.4-1.4-1.4h-23.8c-.8 0-1.4.6-1.4 1.4 0 .8.6 1.4 1.4 1.4z" fill="#fff"/><path d="m169.9 215.6c0-.1-.1-.3-.2-.4 0 0 0-.1-.1-.1-.3-.6-.9-1.2-1.5-1.4-1.8-1.1-4.5-1.9-5.8-2.2l3.6-.9v-.5l1.8.6c.5.2 1.1-.1 1.3-.6 0-.1 0-.2 0-.3.4 0 .8-.3.9-.7.1-.3 0-.6-.1-.8.4 0 .7-.3.8-.7s0-.7-.2-1c.3-.1.5-.3.6-.6.2-.5-.1-1.1-.6-1.3l-.8-.3 7.6-11.4c.1-.2-.1-.4-.3-.4l-17.5 4.7-7.3-8v9.5l.5.3-.5.1v28.8h9c13-3 8.8-12.4 8.8-12.4z" fill="#191c3c" opacity=".3"/><path d="m108.4 218.5c1.3-1.8 2.8-4 3.3-6.1.6-2.6 0-7.1 0-9.8.1-7.1.1-14.4-2.3-21l1.3 5.6-.3 5-.3-.1-1.3-11.9c-1.9-4.5-4.9-8.5-8.8-11.6-.3 7.6-.5 24.3 2.9 29.5.6 1 1.7 1.8 3 2.5-3.1-1.4-5.7-2.3-7.4-2.9-.1 0-.3-.1-.4-.1h-.1c-.1 0-.2-.1-.4-.1 0 0 0 0-.1 0s-.2-.1-.3-.1c0 0 0 0-.1 0s-.2-.1-.3-.1c0 0 0 0-.1 0s-.1 0-.2-.1c0 0 0 0-.1 0h-.1s0 0-.1 0c0 0 0 0-.1 0-.2 0-.4 0-.6.1-.1 0-.2 0-.2.1-.1 0-.2.1-.2.1-.5.2-1 .6-1.4 1-.9.9-1.6 2.1-1.9 3.3v.1.1c-.3 1.2-.3 2.4-.1 3.6.4 2.1 1.4 4.1 2.9 5.7.1.1.1.2.2.2.3.3.6.6 1 .9 1.8 1.5 3.8 3.1 5.5 4.4.2.2.5.4.7.5.3.2.6.4.8.6.3.2.6.4.8.6s.4.3.6.4c.1.1.3.2.4.3.2.2.4.3.5.3l-5.8.7c-1.4 0-2.6.9-3.2 2.1-.2.4-.3.9-.3 1.3v.1c0 .2 0 .4.1.6.1.5.3.9.5 1.3.6.9 1.7 1.5 2.9 1.5h2c.1 0 .2 0 .2-.1.1 0 .1 0 .2-.1.2-.1.4-.2.6-.3.1 0 .1-.1.1-.2s0-.1 0-.2c2.2-1.2 3.8-4.5 4.9-7 0-.1.1-.2.1-.3.4.2.7 0 1-.4zm1.3-16.3v.3c-.5-.3-1.1-.6-1.6-.8 0 0-.1 0-.1-.1h-.1c.6.2 1.2.4 1.8.6z" fill="#191c3c" opacity=".3"/><path d="m137.5 135.7c.5-1.6-.7-3.2-1.9-4.4-2.4-2.3-5.3-4.1-8.6-4.3-3-.2-6.7 1.8-8.7 4-1.2 1.3-2.1 2.9-3 4.4-.8 1.3-1.2 2.8-1.3 4.4-.1 1.8.7 3.7 0 5.5-.2.5-.6 1-.8 1.6-.5 1.2-.1 2.6.2 3.9.1.5.3 1 .3 1.4 0 .8-.4 1.6-.6 2.3-.5 1.8.2 4.1 1.9 4.9.6.3 1.3.3 2 .3.2 0 .5 0 .7-.1.6-.3.6-1.2 1-1.9.4-.8 1.5-1 2.4-1s1.9.1 2.7-.3c2.2-1.1 1.7-4.8 3.7-6.1.9-.6 2.1-.6 2.9-1.3 1-.8 1.1-2.2 1.6-3.3.5-1 1.2-1.8 1.9-2.6 1.7-2.1 2.9-4.7 3.4-7.3" fill="#191c3c"/><path d="m132.3 173.3-13.4-1.4-5-14.6 4.1-1.6 9.4.2 6.1 1.4z" fill="#ddb758"/><path d="m112.6 201h30.9v18.6h-30.9z" fill="#09324c"/><path d="m128.5 156.2s5.7 1.3 7.7 2c0 0 6.2.6 8.1 8.9l4.8 21.6 10.1 11-3.9 3-12.9-8.8c-.7-.5-1.3-1.3-1.5-2.1l-3.6-14 .2 11.5s8.1 11.8 5.7 15.8l-31-1.7.9-16.1-3.5-15.6 2.1-13.4 6.4-2.4s-1.5 8.6 6.4 9.7c-.1-.1 6.9-2 4-9.4z" fill="#de4437"/><path d="m137.4 184.2-.1-6.4c-1.6 2.6-2.5 8-4.2 10.4-.3.4-.6.8-.7 1.2-.3 1 .2 2.1.9 2.9s1.7 1.3 2.6 1.9c1.8 1.3 3.4 3 4.5 4.9.8 1.4 2.5 4.2 1.7 5.8h1.1c2.5-4-5.7-15.8-5.7-15.8z" fill="#191c3c" opacity=".3"/><path d="m145.5 193.9c-.7-.5-1.3-1.3-1.5-2.1l-6.7-14 2 7.8 1.6 6.2c.2.9.8 1.6 1.5 2.1l12.9 8.8.7-.6z" fill="#191c3c" opacity=".3"/><path d="m107.6 219.6s-5.3-3.8-9.4-7.3c-3.1-2.7-4.4-6.5-3.9-10.6v-.1s1.8-4.6 4.4-4.6c0 0 15.9 4.1 27.5 15.4l19.6 6.4-36.2 4.6z" fill="#093a66"/><path d="m110.5 220.2c-.4-.7-.8-1.4-1.5-1.8-.4-.3-.9-.4-1.3-.6-1.3-.8-1.8-2.5-2.8-3.6-.9-1-2.1-1.5-2.9-2.5-.7-.9-1.1-2-1.6-3-.4-1-.8-2-1.2-3s-.8-2.1-.8-3.2c0-.7 1.1-5.2 2.3-4.8-1.4-.4-2.1-.6-2.1-.6-.9 0-1.7.6-2.5 1.3-1.8 1.9-2.6 4.6-2 7.1.5 2.7 1.9 5.1 4 6.9 4.1 3.5 9.4 7.3 9.4 7.3l1.9 3.9 3.6-.5c-.6-1.2-1.8-1.4-2.5-2.6.1-.1.1-.2 0-.3z" fill="#f7f9fa" opacity=".07"/><path d="m115.1 221.5v1.2l30.7-3.9-9.2-3-6.1-1.7z" fill="#191c3c" opacity=".3"/><path d="m159.2 211.2s7.6 1.6 8.3 4.4c0 0 4.2 9.4-8.8 12.4h-39.3v-6.5l18.7-5z" fill="#093a66"/><path d="m167.4 215.6c-.2-.8-1.3-2-2-2 0 .9.5 1.7.5 2.6 0 1.2-.6 2.4-1.4 3.3-1.2 1.3-2.9 2.1-4.5 2.9-1 .5-2 .9-3 1.4-.9.4-1.8.8-2.8 1.1-3.2.8-6.6-.2-9.8.4-2 .4-4 .5-6 .7-1.6.1-19.1 1.2-19.1.9v1.2h39.3c13-3.1 8.8-12.5 8.8-12.5z" fill="#191c3c" opacity=".3"/><path d="m119.4 221.5-2.5-1.9c-.8-.6-1.8-.9-2.8-.8l-12.3 1.4c-1.9 0-3.4 1.5-3.4 3.4v.1c0 1.9 1.5 3.4 3.4 3.4h17.6z" fill="#ddb758"/><path d="m116.9 219.6c-.8-.6-1.8-.9-2.8-.8l-12.3 1.4c-1.9 0-3.4 1.5-3.4 3.4v.1c0 .4.1.8.2 1.1.5-1.3 1.7-2.3 3.2-2.3l12.3-1.4c1-.1 2 .2 2.8.8l2.5 1.9v-2.3z" fill="#191c3c"/><path d="m105.3 222.6v-.1c0-1 .4-2 .9-2.8l-4.5.5c-1.9 0-3.4 1.5-3.4 3.4v.1c0 1.9 1.5 3.4 3.4 3.4h8.1c-2.4.1-4.5-2-4.5-4.5z" fill="#191c3c"/><path d="m120.7 210.9 24.9-6.4 8.8 7.9-16.3 4.1z" fill="#f5f7f9"/><path d="m124.7 210.9 22.9-5.9 6.8 7-13.3 3.3z" fill="#dfe2ec"/><path d="m138.5 215.7-17.9-4.7v.3c0 .5.3.9.8 1.1l15.3 4.7c.4.1.9 0 1.2-.4z" fill="#d8d7d6"/><path d="m137.1 217.1 26.4-6.6v-1.1l-25 6.3z" fill="#bebcba"/><path d="m130.5 201 6.3 1.5c.2.1.5.2.7.3l3.1 2.3c.5.4.9.9 1.1 1.4l1 1.7.5 3.3c-.6.5-1.4.1-1.5-.6l-.1-1.8c-.3-.6-1.6-1.9-2.2-2l-1.8-.4 1.4 2.4c.4.6-.1 1.4-.8 1.4l-3.5-4.2-6.2-2.5z" fill="#ddb758"/><path d="m138.1 216 9.1-15.9c0-.1.1-.1.1-.1l27.1-7.3c.2-.1.4.2.3.4l-11.3 16.9c0 .1-.1.1-.2.1l-24.9 6.2c-.1.1-.3-.1-.2-.3z" fill="#f5f7f9"/><path d="m158.4 205c-.5 1.1-1.5 2-2.4 2-.8 0-1.1-.9-.7-2 .5-1.1 1.5-2 2.4-2s1.2.9.7 2z" fill="#dfe2ec"/><path d="m112.6 202.6c-2.7-1.4-5.3-2.6-7.4-3.4.1.1.1.3.2.4 4.1 6.2 24.3 5.9 24.3 5.9l1.3-2.8-1.7-1.7h-16.7z" fill="#191c3c" opacity=".3"/><path d="m114.9 156.9s-7.7 2.9-8.7 3.4c-.4.2-3.5 1.3-3.6 4.9s-1.3 26.6 2.8 32.8 24.4 7 24.4 7l2.2-4.4-19.4-8.5-2.2-20.1z" fill="#de4437"/><path d="m112.5 192.1-2.1-20.2-.3 1.2.9 19.8 20.3 9 .6-1.3z" fill="#191c3c" opacity=".3"/><path d="m167.3 206.5-3.1-1c-.5-.2-.8-.7-.6-1.3.2-.5.7-.8 1.3-.6l3.1 1c.5.2.8.7.6 1.3-.2.5-.7.8-1.3.6z" fill="#ddb758"/><path d="m167 208.2-3.6-1.2c-.5-.2-.8-.7-.6-1.3.2-.5.7-.8 1.3-.6l3.6 1.2c.5.2.8.7.6 1.3-.2.4-.8.7-1.3.6z" fill="#ddb758"/><path d="m166.3 209.6-2.9-1c-.5-.2-.8-.7-.6-1.3.2-.5.7-.8 1.3-.6l2.9 1c.5.2.8.7.6 1.3-.2.5-.8.8-1.3.6z" fill="#ddb758"/><path d="m165.3 210.6-1.8-.6c-.5-.2-.8-.7-.6-1.3.2-.5.7-.8 1.3-.6l1.8.6c.5.2.8.7.6 1.3-.2.5-.8.8-1.3.6z" fill="#ddb758"/><path d="m139.6 208.9-.3-2.6 1.3-.1.4 3.9c-.7.1-1.3-.5-1.4-1.2z" fill="#ddb758"/><path d="m119.9 151.9h7.7v10h-7.7z" fill="#ddb758"/><path d="m127.6 155.5-7.7 1.9v-5.5h7.7z" fill="#191c3c" opacity=".3"/><path d="m138.3 139.3-.9-4.9c-2 .8-4.2 1.3-6.3 1.5-.7.1-1.4.1-2.1.3-1.5.5-2.5 1.7-3 3.1-.4 1.1.1 3.5-1.4 3.7-.7.1-1.3-.3-1.7-.9-.4-.5-.8-1.1-1.2-1.6-1.2-1.1-2.7-.4-2.8 1.2-.1.9.3 1.9 1 2.5.7.7 1.8 1 2.1 1.9.2.4.2.7.2 1.1.1 1.3.5 2.6 1.2 3.8 1.1 1.7 2.9 2.7 4.6 3.6 2 1.1 4 1.7 4.9-.8.7-2 3.1-2.9 3.9-4.9.4-1 0-2 0-3.1 0-2.4 1.6-4 1.5-6.5z" fill="#efdcb4"/><path d="m136.7 145.9c.1-2.4 1.7-4.1 1.6-6.6l-.9-4.9c-.4.1-.7.3-1.1.4l.8 4.5c.1 2.5-1.5 4.2-1.6 6.6-.1 1.1.4 2 0 3.1-.7 2-3.1 2.9-3.9 4.9-.4 1-.9 1.5-1.6 1.7 1.2.2 2.2-.1 2.7-1.7.7-2 3.1-2.9 3.9-4.9.4-1.1 0-2 .1-3.1z" fill="#191c3c" opacity=".1"/><path d="m114.5 145c.9.1 1.5 1.1 1.5 2s-.3 1.8-.5 2.7-.3 1.9.2 2.6c.4.6 1.2 1 1.5 1.7.6 1.3-.9 2.7-1.1 4.1-.2 2.2 2.9 3.8 2.6 6-.1.6-.4 1.2-.4 1.8.1 1.1 1.4 2 1.2 3.2-.1.3-.2.6-.1.9.1.2.3.3.6.4.6.2 1.4.4 1.7-.2.4-.7-.6-1.5-.3-2.3 1.1.2 2.2.5 3.3.7.2.1.5.1.7-.1.1-.1.2-.2.2-.4.3-1.3-.9-2.4-1.6-3.6-.1-.2-.2-.3-.2-.5 0-.4.4-.7.8-.8.7-.3 1.4-.8 1.6-1.5.2-.9-.4-1.7-.9-2.5-.8-1.1-1.5-2.5-1.2-3.9.2-.9.9-1.8.8-2.8-.1-1.8-2.4-2.8-2.6-4.6-.1-.4 0-.9 0-1.3-.1-.9-.8-1.8-1.6-2.2-.8-.5-1.8-.7-2.7-.9-.7-.2-1.5-.3-2.2-.2-.7.2-1.4.7-1.4 1.5" fill="#191c3c"/><path d="m289.6 220.5-7.8 2.5c-1.1.4-2 1.2-2.5 2.3v.1c0 1.4 1.2 2.6 2.6 2.6h11.1v-9.8z" fill="#191c3c" opacity=".3"/><path d="m279.9 113.2v.6c0 .6.2 1.3.6 1.8l.3.3c.2.3.4.6.4 1 .1.6.4 1.1.9 1.4l1.9 1.1c.2.1.4.2.7.2h2.9l2.1-.6 3.3.5v-6l-3.9.3-.6-1.3c-.5-1-1.5-1.7-2.7-1.8l-6-.3-7.2-7.2c-.2-.2-.6-.2-.8 0-.2.2-.2.6 0 .8l6.5 6.5c-.2.2-.4.4-.4.7 0 .4.3.8.8.8l1.2.1.9.9v.1z" fill="#191c3c" opacity=".3"/><path d="m289 117.8c-.3.3-.6.3-.8 0l-13.9-13.9c-.2-.2-.2-.6 0-.8.2-.2.6-.2.8 0l13.9 13.9c.3.2.3.6 0 .8z" fill="#191c3c"/><path d="m319.6 75.5h8.7v9h-8.7z" fill="#ddb758" transform="matrix(.9157 -.4019 .4019 .9157 -4.8268 136.9349)"/><path d="m326.4 74.9-5.8 8.4-2.5-5.7 8-3.5z" fill="#191c3c" opacity=".3"/><path d="m326.5 75.1-9.9 8.1c-2.2 1-4.8.2-6-1.9l-1.1-1.9-1.3.5c-.6.2-1.2-.1-1.2-.7l-.5-4.3c-.1-.4 0-.9.2-1.3l.9-1.6-1.7-3.8c-.2-.4 0-2.6.3-2.8l14.1-4.4z" fill="#efdcb4"/><path d="m308.2 222.9h-12.9l4.6-3.3 1.1-3h7.2z" fill="#ddb758"/><path d="m348.2 216.9-11.2 5.6 2.2-5.2-.7-3.1 6.1-3.9z" fill="#ddb758"/><path d="m325 143.1s.9 29.5 0 31.2c0 0 14 17.1 20.8 37.2l-7.2 4-25.8-37.6 5-34.7z" fill="#19a0ff"/><path d="m317.2 179.9s6.3-28.3 6.4-30.4c0-.6.7-1.2 1.5-2-.1-2.7-.1-4.4-.1-4.4h-7.1l-5 34.7 9.3 13.5c-.1-1.7-4.9-10.2-5-11.4z" fill="#191c3c" opacity=".3"/><path d="m304.5 139.6-1.5 39.8-2.9 38.9h8.7s7.8-28.2 6.3-38.4c0 0 6.3-28.3 6.4-30.4.2-2.1 7.8-5 6.9-10.5l-5.6-4.9-17.1 1.8z" fill="#19a0ff"/><path d="m307.1 139.6 1.2-3.7 14.8-1.6-.3-.2-17.1 1.8-1.2 3.7-1.5 39.8-2.9 38.9h2.6c.2-3.1.4-6.1.4-9.2 0-2.5.5-4.9.4-7.4 0-1.6-.3-3.3-.2-4.9.2-1.8 1-3.8 1.4-5.6.5-2 1-4 1.2-6 .2-2.5-.3-5.1-.6-7.6-.3-3.1-.4-6.3-.4-9.4 0-2.1.5-3.8.8-5.7.4-2.3.1-4.8.2-7.1.2-3.4.8-6.7 1-10 .1-1.7-.3-4.1.2-5.8z" fill="#f7f9fa" opacity=".09"/><path d="m333 100.9 5.4 9.1c.9 1.5.6 3.5-.7 4.7l-8.9 8.2-4.5-5.7z" fill="#ddb758"/><path d="m328.4 138.9-5.6-4.9-17.1 1.8-1.2 3.7-.1.5c9.5-2 19.5 3.2 23.4 2.3.5-.9.8-2.1.6-3.4z" fill="#191c3c" opacity=".3"/><path d="m333 100.9-8.7 16.2 4.5 5.7 2.9-2.6c1.4-6.9 3.4-15.1 3.4-15.1.1-.2.1-.3.2-.5z" fill="#191c3c" opacity=".3"/><path d="m328.8 79.7s.7 1.6 1.7 2.4c1 .9 6.4 6.3 6.1 10.4 0 0 .9 2.4-3.1 12.5 0 0-5.2 21.4-4.7 24s2.8 12.5 2.8 12.5-14.9-6.3-30.3-1.7c0 0 3.4-19.2 3.7-22.8 0 0 7.8-26.2 12.8-30.3z" fill="#c6e8f7"/><path d="m329.3 80.3-.7-3.1s-9 4.2-10.4 7.3l-.9 5.4c0-.1 7.2-8.4 12-9.6z" fill="#fff"/><path d="m348 214.4 2.6 4.9c.5 1 0 2.2-1 2.5l-16.2 5.5h-7.3s-.8-.7-1-1.7l8.4-3.9 3.8-5.2 3.5 2.5 5-1.7z" fill="#191c3c"/><path d="m350.8 218.7.8 1.4c.3.5.1 1.2-.5 1.5l-15.9 6.3h-7.8c-1.3 0-2.3-1.1-2.3-2.3h11z" fill="#fff"/><path d="m309.3 218.9v5.7c0 1.1-.9 1.9-1.9 1.9h-18l-7.6-1.3c.4-1.1 1.3-1.9 2.5-2.3l7.8-2.5 5.9-3.8 2.2 4.7h6.5z" fill="#191c3c"/><path d="m307.7 228h-23.3c-1.4 0-2.6-1.2-2.6-2.6v-.1h28v.7c0 1-.9 2-2.1 2z" fill="#fff"/><path d="m292.7 220.1.7 1.3" fill="none" stroke="#fff" stroke-miterlimit="10"/><path d="m294.4 219 .7 1.3" fill="none" stroke="#fff" stroke-miterlimit="10"/><path d="m294.4 219 .7 1.3" fill="none" stroke="#fff" stroke-miterlimit="10"/><path d="m296.1 217.9.7 1.3" fill="none" stroke="#fff" stroke-miterlimit="10"/><path d="m334 221 1.2.7" fill="none" stroke="#fff" stroke-miterlimit="10"/><path d="m335.4 219.1 1.1.8" fill="none" stroke="#fff" stroke-miterlimit="10"/><path d="m336.7 217.3 1.2.8" fill="none" stroke="#fff" stroke-miterlimit="10"/><path d="m305.3 59.9c.1 0 .1-.1 0 0 .4-.2.9-.3 1.2-.6.3-.2.5-.6.7-.8.4-.5 1.1-.8 1.5-1.2.7-.5 1.2-.9 2.1-1.1.9-.1 1.9 0 2.8-.1 1.6-.2 3.3-1.1 4.8-.6 1.1.4 1.8 1.4 2.5 2.4 1.3 2 2.7 4 3.6 6.2.8 2 .7 4.4.9 6.6.1.5.1 1.1-.1 1.6-.2.6-.7 1.1-.6 1.8-.1-.7-1.2-1.9-1.5-2.6-.4-.8-.6-1.4-1.5-1.7-.4-.1-1-.1-1.3-.5-.2-.2-.3-.5-.4-.7-.2-.5-.3-.9-.7-1.3-.3-.4-.8-.6-1.3-.6-.2 0-.4.1-.5.2s-.1.2-.2.2c-.2.2-.5.2-.7.3-1.1.5-.1 2.2-.1 3 0 .9-.5 2-1.4 2.2-.2-.7-.4-1.4-.8-2.1-.7-1.3-2-2.2-3.2-3-.6-.4-1.2-.8-1.8-1.3-.4-.3-.7-.5-1.2-.5-.6 0-1 .5-1.3.9-.9 1.5-2.8 3.2-4.6 1.7-.7-.6-1-1.6-1-2.5 0-1.4.7-2 1.4-3 .9-1.3 1.3-2.3 2.7-2.9z" fill="#fec55e"/><path d="m317.5 123.6 8.2-14.5-7.5-3.2-3.6 6.4-8.2.6c-.8 2.5-1.3 4.1-1.3 4.1-.1.8-.3 2.6-.6 4.7z" fill="#191c3c" opacity=".3"/><path d="m336.6 92.6c.3-4.2-5-9.6-6.1-10.4-1-.9-1.7-2.4-1.7-2.4l-1.1.7c0 .7.2 1.5.4 2.2.3.9.6 2 .1 2.9-.7 1.5-2.8 1.6-3.8 2.9s-.5 3.3.1 4.8c1.1 2.9 2.4 6.1 1.3 9-.3.7-.7 1.4-.8 2.1-.3 2.2 1.9 4 1.9 6.2s-2.2 3.8-2.9 5.9c-.8 2.5.6 5.1.7 7.7 0 2.1-.8 4.2-.7 6.3.1 1.4.6 2.7 1 4 .6 1.8 1.2 3.7 1.7 5.6.9.3 1.7.5 2.4.7 0-.2.1-.3.1-.5.3-1.6.5-3.2.8-4.8-.6-2.6-1.2-5.2-1.4-6.4-.5-2.6 4.7-24 4.7-24 4.2-10.1 3.3-12.5 3.3-12.5z" fill="#f7f9fa" opacity=".04"/><path d="m317.9 105.5-3.4 6.6-22.9 1.6-.6-1.3c-.5-1-1.5-1.7-2.7-1.8l-7.1-.3c-.5 0-.9.4-.9.8 0 .4.3.8.8.8l2.2.2-.1.9-.9.2v.6c0 .6.2 1.3.6 1.8l.3.3c.2.3.4.6.4 1 .1.6.4 1.1.9 1.4l1.9 1.1c.2.1.4.2.7.2h2.9l2.1-.6 24.6 3.5 8.9-13.2z" fill="#ddb758"/><path d="m327.8 111.2-10.6-6.3 5.7-13.7c1.5-3.4 5.5-4.9 8.9-3.4 3.4 1.5 3.9 5.5 2.3 8.9z" fill="#191c3c" opacity=".3"/><path d="m326.7 109.6-10-4.7 5.1-14.2c1.5-3.4 5.5-4.9 8.9-3.4 3.4 1.5 4.9 5.5 3.4 8.9z" fill="#c6e8f7"/><path d="m59 228h341.6" fill="none" stroke="#1e2022" stroke-miterlimit="10"/></svg>