<svg enable-background="new 0 0 348.7 196.5" viewBox="0 0 348.7 196.5" xmlns="http://www.w3.org/2000/svg"><path d="m137.8 98.6-13.6 5.6c-5.1 2.1-8.4 7.1-8.4 12.6l-4.5 49.1 90.8.4v-16.9c0-13-3.5-25.8-10.2-36.9l-4.3-7.2c-2.7-4.5-7.4-7.6-12.7-8.2l-11.8-1.4-3.2-2.4z" fill="#191c3c"/><path d="m136.9 98.9.9 6.4v17.9l8.6 42.8 9.9-38.7 6.6-30.8-3.1-2.4-22 4.5z" fill="#fff"/><path d="m144.1 114.3-1.8 33.7 3.9 17.4 3.9-16.4 1.2-34.7z" fill="#fec55e"/><path d="m164.6 73.3c0-.9-.2-1.8-.8-2.5-.4-.4-.9-.8-1.2-1.3-.1-.2-.1-.5-.2-.8-.1-.6-.3-1.2-.7-1.7-.9-1.2-2.5-1-3.6-1.9-.4-.3-.8-.8-1.1-1.2-.4-.5-.7-1.4-1.2-1.7-.4-.2-1 0-1.4.2-.9.5-1.9 1.4-3 1.1-1-.3-1.7-1-2.7-1.2-2.3-.4-4.1 2.3-6.4 2.3-.7 0-1.4-.3-2.1-.1-.8.2-1.3 1-1.7 1.8-.3.8-.6 1.6-1.1 2.3-.5.6-1.3.9-1.9 1.5-1 1-1.1 2.5-1.2 3.9-.1 1.2-.2 2.3-.1 3.5.1 3 .9 6.1 2.5 8.7h.1c.2-.4.7-.6 1.1-.7 1-.2 2-.5 3.1-.7.9-.2 1.8-.4 2.7-.4s1.8.2 2.7.5c2.1.5 4.3 1.1 6.4 1.6 1.5.4 3.1.8 4.5 1.6 1.3.7 2.4 1.7 3.2 2.8.6-2.3 1.5-4.6 2.8-6.6.2-.4.5-.8.6-1.2.2-.7-.1-1.4-.1-2.1 0-1.2.6-2.3.7-3.4 0-.7-.2-1.4-.2-2.1.1-.6.3-1.1.4-1.6-.1-.2-.1-.4-.1-.6z" fill="#32364c"/><path d="m164 95.7 2.6 8.9-3.5 1.9 3.5 3-20.2 56.5-.4-2.5 11.9-65.7 2.1-4.6 3.1 2.4z" fill="#4d5068"/><path d="m136.9 98.9-7.2 11.7 3.4 2.5-3.4 4 16.7 48.9z" fill="#4d5068"/><path d="m148.1 109.3-7.3 5.6h14l.1-.5z" fill="#fec55e"/><path d="m135.1 80.1c-.8.9-1.2 2.1-1.1 3.4l.4 4.1c.1.9.4 1.7.9 2.4 0 0 0 .1.1.1.9 1.1 2.7 1.1 3.6-.1l.3-.4-.8-7.9z" fill="#e2b34b"/><path d="m162 82.1c.8.9 1.2 2.1 1.1 3.4l-.4 4.1c-.1.9-.4 1.7-.9 2.4 0 0 0 .1-.1.1-.9 1.1-2.7 1.1-3.6-.1l-.3-.4.8-7.9z" fill="#e2b34b"/><path d="m158.5 94.3-20.8 4.2-.9.4.1.7c.2.5.5 1 .8 1.5l3.3 5.5c1.2 2.1 3.4 3.3 5.8 3.3 2.4 0 4.5-1.2 5.8-3.2l3.6-5.7c1.1-1.7 1.8-3.6 2.1-5.6z" fill="#191c3c" opacity=".3"/><path d="m136.8 78.7v14.4c0 2.8.8 5.6 2.2 8l3.3 5.5c1.2 2.1 3.4 3.3 5.8 3.3 2.4 0 4.5-1.2 5.8-3.2l3.6-5.7c1.1-1.7 1.8-3.6 2.1-5.6l.9-5.3v-13.7l-23.7-.6z" fill="#e2b34b"/><path d="m151.5 89.6-1.4 7c-.1.6-.6.9-1.2.7l-1.7-.7-.5.8 2.8 1.1c.5.2 1.1-.1 1.2-.7z" fill="#4a5594"/><path d="m160.5 90.5c-.8-3.2-1.2-6.4-1.3-9.7 0-1 0-2.1-.4-3.1-.4-.9-1.6-.3-2.4-.5-1.1-.3-2-1-3.2-1-1.1-.1-1.7.4-2.6 1-.4.3-.9.7-1.4.9-.7.3-1.5.3-2.2.1-1.5-.4-2.8-1.3-4.3-1.8s-3.4-.5-4.3.8c-.6.9-.5 2.1-.3 3.2s.6 2.1.4 3.2c-.1 1.1-.8 7.4-1.9 7.3l-1.1-18.8 14.4-3.1 12.1 2.9z" fill="#32364c"/><path d="m140.8 158.1v-2.9c0-.3-.1-.6-.3-.9l-2.2-3.2-7.3-2.2-4.3 2.2c-.4.2-.7.6-.9 1l-1.8 5.3-3.1 2.8s-1.6 1.1-2.1 3.6c-.3 1.9 2.2 2 2.2 2l3.3.1h3.1v-1.2l3 .1c.3 0 .6-.1.8-.2.9-.5 1.2-1.9.3-2.4l-3.2-2.1c-.2-.1-.8-.2-.7-.5.1-.3.5-.4.7-.2l4.3 3c.6.4 1.3.4 1.9-.1.7-.5.8-1.4.3-2.1l-1.1-1.6-4.1-2.1c.3-.4.8-.6 1.2-.3l3 1.8 1.4 1.7c.6.7 1.6.8 2.3.2.6-.5 1-1.4.6-2.1l-1.8-2.8-4.9-2.5c.3-.4.8-.5 1.2-.3l3.3 2 1.9 1.6v.2c.5 1.3 1.7 2.2 3 2.1z" fill="#e2b34b"/><path d="m123.5 157.4s-11.1 9.2.8 8.5h-6.5s-3-3.3 6.8-10.3l-.7 1.9h-.4z" fill="#fff"/><path d="m79.7 93h19v34.9h-19z" fill="#e08f4c"/><path d="m128.5 116.4-10.5 8-.4-7.4 7.5-7.2z" fill="#4a5594"/><path d="m103.7 111.9 12.9 5.9-13.9 48.4h-43.7l13.7-56 7.1-.7 6-4.7z" fill="#394e91"/><path d="m86 103.4s-.3 4.6-1.4 5.8l-1.5 4.9v28.5l11.8.9 3.8-27.8s0-2.5 1.4-3.2-5.7-9-5.7-9h-8.4z" fill="#d8b056"/><path d="m84.1 118.7-1.1 7.5-.7 31.9 6.9 1.7 7.9-38.1c-4 2.5-9.3 1.6-12.2-2.1z" fill="#fff"/><path d="m79.8 109.5-3.7 11.7 4.5 3.6-4.5 2.3 2.2 29.2 6.2.1-.3-50.4z" fill="#2f3975"/><path d="m102.9 112.4 3.8 10-5.7 1.8 4.5 4.6-14.8 31-6.2-.6 16.4-48.7z" fill="#2f3975"/><path d="m106.1 86.6c-.2-1.5-.5-3-1.6-4.1-.6-.6-1.4-1.1-2.2-1.6-1.7-1-3.3-2-5-2.9-.9-.5-2-1.1-3-.8-.5.2-.9.5-1.4.6-.7.2-1.4-.2-2.1-.3-1.6-.3-3.2.6-4.5 1.5-1.2.8-2.5 1.6-3.5 2.6-1.7 1.8-2.4 4.2-2.7 6.5s-.4 8.5-.4 8.5c3.9 1.9 8.7.1 12.9-1.1s8-3.4 11.6-5.7c.8-.5 1.6-1 1.8-1.8.3-.3.2-.9.1-1.4z" fill="#e08f4c"/><path d="m86 103.4s0 .3-.1.9h.4l.9 2.6c.7 1.8 2.1 3.3 3.9 3.9l4.8 1.1c.9.3 3.4.5 4 .6.2-.4-.4.2 0 0 1.4-.7-5.7-9-5.7-9h-8.2z" fill="#191c3c" opacity=".3"/><path d="m106.3 85.7s.7 4.6 1.1 6.1c.1.3.1.6.1 1l-.2 1.6s.9 2.7 1.1 4.2c0 0 .4 2.5-.6 5.3 0 0-2.3 6.5-3.5 7.6 0 0-1.9 1.7-5.6.4l-5.7-2c-1.8-.6-3.3-2.1-3.9-3.9l-.9-2.6h-2c-.5 0-.9-.2-1.2-.5l-.9-1c-1-1.1-1.5-2.5-1.5-4v-1.3s.6-2.6 3-1.3l1.9 2 .4-.1v-4.2s4.2-7.8 10-8.6c.6-.1 1-.6 1-1.1v-.3c-.3-.1 4.4-1.1 7.4 2.7z" fill="#d8b056"/><path d="m105.3 99.2-1.9-4.1 1 4.1c.4 1-.3 2-1.3 2h.9c1.1 0 1.8-1.1 1.3-2z" fill="#4a5594"/><path d="m91.6 103.4c-2.1-4-4.7-8.4-3-13 .2-.6-.8-.9-1-.3-.6 1.7-.7 3.4-.5 5.1-.2.1-.3.2-.3.5-.1 3.4 1.3 6.3 3.9 8.4.5.3 1.2-.1.9-.7z" fill="#e08f4c"/><path d="m77.8 112 2.1-2.5-10.2 1c-4.1.4-7.6 3.2-8.8 7.2l-12.6 42.3c-.9 3.1 1.4 6.2 4.6 6.2h34.1v-9.8l-23.4-.4 4.2-17.8 4.3-21z" fill="#394e91"/><path d="m87 157.6h2.8c1.8 0 3.4-.9 4.3-2.5l8-13.4 6.4-2.6-.7 1.9-4.3 1.8-1.1 1.9 1.9-1.3h2.6l-5.9 16.5-1.3 1.1c-1.3 1.1-2.9 1.9-4.6 2.1l-8.2 1.3v-6.8z" fill="#d8b056"/><path d="m105.9 141.8 2-.8.7-1.9-2.1.8z" fill="#191c3c" opacity=".3"/><path d="m99.8 161.1 1.3-1.1 5.9-16.5h-1.7l-6.6 18.4c.4-.2.7-.5 1.1-.8z" fill="#191c3c" opacity=".3"/><path d="m98.9 166.2 10.9-30.7 9.4.8-5.5 29.9z" fill="#394e91"/><path d="m124.1 112.3 1.1-1c.4-.4.4-1 0-1.4l-.3-.3c-.4-.4-1-.4-1.4 0l-1.1 1c-.4.4-.4 1 0 1.4l.3.3c.4.3 1 .4 1.4 0z" fill="#d8b056"/><path d="m124.4 115.7 3.2-2.2c.4-.3.5-.9.2-1.3l-.2-.3c-.3-.4-.9-.5-1.3-.2l-3.2 2.2c-.4.3-.5.9-.2 1.3l.2.3c.3.3.9.5 1.3.2z" fill="#d8b056"/><path d="m125.7 117.7 3.3-2.1c.5-.3.6-.9.3-1.3l-.2-.3c-.3-.5-.9-.6-1.3-.3l-3.3 2.1c-.5.3-.6.9-.3 1.3l.2.3c.3.4.9.6 1.3.3z" fill="#d8b056"/><path d="m128.4 116-10 6.9c1.6-1.4.8-3.6.8-3.6v-2.3l1.9-1.2c.6-.4.7-1.1.4-1.7-.4-.6-1.1-.7-1.7-.4l-3.7 2.3-4.8 9.3v10.1l6.8.7 3-9.3c5.9-1.8 7.7-9.1 7.7-9.1z" fill="#d8b056"/><path d="m57 141.1c4 0-1.3-4.8 2.8-5 1.6-.1 4.1.2 3.4-1.3-.7-1.3-2.9-1.1-3.7-2.3-1.6-2.6 0-5.5.8-8.2.8-3 3.3-8.7 4.1-11.8-1.6 1.3-2.8 3-3.4 5.1l-4.6 15.6-.4.8-.3.9-7.4 25.1c-.2.8-.3 1.6-.1 2.3 2.1-3.7 3.6-8.7 4.7-12.7.7-2.8 2.7-8.5 4.1-8.5z" fill="#3a3c4e" opacity=".4"/><path d="m85.1 104.9-.5-1.5-2.9-2.8-1.2-9.5c-1.3 1.7-.5 3.7-1 5.6-.4 1.4-1.5 2.8-1.8 4.2-.3 2.1 1.3 4.3.2 6.2s-4.5 3-4.6 5.1c0 1.4 1.6 2.6 1.6 4 0 1.2-1.3 2.3-.8 3.4.2.5.7.9.7 1.4s-.5 1-.3 1.5c.2.8 2 .9 2.7.3.8-.6.7-1.5.3-2.3s-1.1-1.4-1.4-2.2c-.1-.3-.2-.6 0-.9.4-.7 1.9-.6 2.7-1.1 1.4-.8.4-2.3-.6-3.3.8-.7 2.1-.8 3.3-1s2.5-.7 2.6-1.6c.1-.8-1-1.5-.8-2.3.1-.7 1-1.1 1.7-1.5.5-.5.8-1.4.1-1.7z" fill="#e08f4c"/><path d="m129.9 125.1-1.2 1.3-9.8-16.8c-.3-.6.1-1.3.8-1.3.3 0 .6.2.8.4z" fill="#191c3c"/><path d="m129.5 125.1-9.5-16.4c-.1-.2-.3-.3-.5-.4-.1 0-.2.1-.2.1.1.1.3.2.3.3l9.5 16.4z" fill="#75778a"/><circle cx="129.2" cy="125.7" fill="#474963" r=".9"/><path d="m74.5 156.2c-1.9-.1-4.4-.2-6.9-.4-2.5-.1-5-.2-6.9-.1-1.9 0-3.2.1-3.2.1l.1 1.1c-1.1.3-1.9.6-1.9.6s2-.4 4.2-.6c-.8.6-1.5 1.3-1.5 1.3s.9-.5 1.9-.9c.4-.2.8-.3 1.1-.5 1.7-.1 3.2-.3 3.6-.4.9 0 1.7-.1 2.6-.1 2.5 0 5-.1 6.9-.1s3.1-.1 3.1-.1-1.2.2-3.1.1z" fill="#2c2d3b" opacity=".4"/><path d="m278 165.9h-22.2l-4.6-10-3.4 10h-23.6v-31.5h53.8z" fill="#c5c7d3"/><path d="m233.1 151.6-.3-.1c-.1 0-.1 0-.2-.1s-.3-.1-.3-.2c-.1-.2-.1-.4-.1-.7 0-.2 0-.4 0-.6 0-.3 0-.5-.1-.8-.1-.4-.5-.8-.7-1.1-.3-.3-.5-.5-.7-.7-.3-.4-.4-.9-.1-1.4s.7-1 1.2-1.5l1.5-1.4 6-5.6-6.4 5.1-.2.2 1-1.3-3.8-7h-5.6v31.5h7.4 2 1.3c.4-1.4.6-2.9.4-4.4-.1-1-.5-2-1-2.9l-.2-.3-.1-.1s-.1-.1-.1-.2c-.1-.1-.1-.3 0-.4 0-.1.1-.1.2-.2h.1l.1-.1.3-.2.5-.4.8-.6.1-.1c1.3-1 1-3-.6-3.6l-.7-.2z" fill="#191c3c" opacity=".1"/><path d="m288.7 133.1c-.1-.3-.2-.7-.1-1.1s.3-.7.5-1c1.3-1.9 1.1-4.4.9-6.6 0-.3-.1-.5-.3-.7-.1-.1-.3-.1-.5-.2-2.1-.2-4.4-.4-6 1l.8-.3c-1.5.5-2.9 1-4.2 2-1.2 1-2.1 2.4-1.9 4 .1 1.4 1.2 2.6 1.3 4.1.1.6 0 1.3.3 1.9s1 .9 1.7 1.1c2.2.7 4.4 1.1 6.7 1.1.7 0 1.6-.2 1.8-.8.1-.3 0-.6-.1-.9-.2-1.3-.5-2.4-.9-3.6z" fill="#fec55e"/><path d="m234 46.6 22-6.7 9.9 2.5 4 48v44h-38.3l-3.8-71.3z" fill="#2e3347"/><path d="m229.9 130.9h48.1v5.9h-48.1z" fill="#191c3c"/><path d="m242.9 130.9h12v5.9h-12z" fill="#dfe2ec"/><path d="m260.9 39.6 12.1 1.6c3.7.5 6.5 3.6 6.6 7.4l.4 26.1-6.8 22.5 9.8 43.7c-11 1.2-21.2-5.9-23.9-16.7l-5.1-20.7s7.6-11.1 8.4-28.9l-4.6-35z" fill="#c5c7d3"/><path d="m231.2 42.7-14.8 9.9c-2 1.3-3.1 3.6-2.8 6l8.6 85.7c14 0 26.1-9.6 29.2-23.3l3.4-14.6 1.9-5.7-15.4-44.7z" fill="#c5c7d3"/><path d="m231.2 42.7-.8 10.6 4.5 2.3-2.2 4.4 22.3 41.1 1-2.4-13.7-44z" fill="#676b82"/><path d="m260.9 39.6 4.7 9.2-1.5 2.2 2.4 2.5s4 19.8-.9 28.7l-11.7 21.3s6.4-16.4 7.1-26.5l-4.6-37.7z" fill="#676b82"/><path d="m257.6 23.6c-.2-1.6-.2-3.3-1-4.7-.4-.6-.9-1.2-1.4-1.7-.4-.4-.9-.9-1.3-1.2-.9-.6-2-.9-3-1.3-1.1-.3-2.2-.7-3.4-.8-1.8-.3-3.7-.1-5.5 0-1.4.1-2.8.2-4.1.7-2.6 1-4.2 3.5-5.5 6-.3.5-.5 1-.7 1.5-.2.8-.2 1.6-.2 2.4.1 2.4.1 4.7.2 7.1 0 0-.4 0 0 .3.4.4.9.6 1.4.7 1.8.5 3.7.2 5.6.2 3.3.1 6.5 1 9.6 2 .7.2 1.5.5 2.2.8.6.3 1.1.6 1.7.8 1.4.5 3.1.4 4.6.2.6-.1 1.2-.2 1.6-.6s.5-1.1.6-1.7c.1-1 .2-1.9.2-2.9-.2-2.7-1.2-5.2-1.6-7.8z" fill="#1e2022"/><path d="m231.2 42.7-15.3 10.2c-1.7 1.1-2.8 3-2.9 5.1l-1.6 48.7 4.6 38.3h11.5l-1.4-40.9 2.1-26z" fill="#c5c7d3"/><path d="m217.9 145v3.1l-1.6 1.7c-.9.9-1.4 2.1-1.6 3.3l-1.3 11.1c-.1.8.6 1.6 1.4 1.6h.4c.7 0 1.3-.6 1.4-1.3l.3-5 .8 5.1c.1.7.7 1.2 1.4 1.2h.8c.8 0 1.4-.6 1.4-1.4v-7c0-.1.2-.1.2 0l1.2 7.2c.1.7.7 1.2 1.4 1.2h.4c.8 0 1.5-.7 1.4-1.6l-.4-3.4c-.1-.4 0-.9.1-1.3l1.5-5 1.9 2.4c-.5 1.9.5 3.8 2.4 4.5l.2.1-.3-7.6c-.1-1.3-.6-2.6-1.6-3.4l-3.7-3.3v-2.2z" fill="#fec55e"/><path d="m233 26.4v16.9c0 .8.2 1.5.5 2.2l5.9 13.2c.9 2.1 3 3.4 5.3 3.4 1.8 0 3.4-.8 4.5-2.2l7.1-9.8c.9-1.2.3-1.8.3-3.2v-17c0-1.5.5-2.8-.7-3.6l-9.2-5.4-11.3 2.6c-1.5.3-2.4 1.5-2.4 2.9z" fill="#191c3c" opacity=".3"/><path d="m231.3 25.8v16.9c0 .8.2 1.5.5 2.2l5.9 13.2c.9 2.1 3 3.4 5.3 3.4 1.8 0 3.4-.8 4.5-2.2l7.3-9c.9-1.2 1.5-2.6 1.5-4.1l1-17c0-1.5-1.8-2.8-3-3.6l-9.2-5.4-11.3 2.6c-1.5.3-2.5 1.5-2.5 3z" fill="#fec55e"/><path d="m239.3 44.4c-.5-.3-.6-1-.4-1.5.3-.7-.3-7.7-.3-8.4l-.2-.2s.5 6.8-.5 8.9c-.2.5-.1 1.2.4 1.5.7.5 1.8.9 3.2.6l-.1-.2c-.9 0-1.6-.3-2.1-.7z" fill="#212121" opacity=".3"/><path d="m256.2 34.6s.7-1.2 1.9-2c1.1-.6 2.5.2 2.4 1.5s-.3 2.5-1.4 3.8c0 0-.9 2.2-2.9 2.3z" fill="#fec55e"/><path d="m231.4 28c.9-.2 1.4-1.2 1.9-2s1.4-1.5 2.3-1.2c.4.2.6.5.9.8 1.1 1.1 2.7 1.3 4.2 1.5 1.4.1 2.9.2 4.2-.4.6-.3 1.1-.7 1.7-1 1.9-.8 4.4.3 5 2.3.2.7.2 1.5.2 2.2v2.3c0 .2 0 .4.1.7.1.4.6.7 1.1.8s.9 0 1.4-.1c.1.7-.1 1.5 0 2.2 0 .3.1.5.2.8.1.4 0 .7 0 1.1-.1.3-.2.6-.2 1 0 .5 2.2 2.5 2.2 2 .1-3.8-.2-7.3 1.5-8.4.3-5.9.1-3.7-.2-9.6-.1-1.2-.2-2.5-.9-3.5-.7-.9-1.9-1.4-3.1-1.7-4.3-1.2-8.8-1.4-13.2-.5-.7.1-1.4.3-2.1.6s-1.4.7-2.1.9c-.9.3-2-.1-2.7.3-.9.4-1.5 2-1.8 2.9-.3 1.2-.4 2.5-.5 3.7-.1.7-.1 1.5-.2 2.2" fill="#1e2022"/><path d="m256.3 104.2c0 .5-.4 1-1 1s-1-.4-1-1 .4-1 1-1 1 .4 1 1z" fill="#4d5068"/><path d="m273.4 97.6c-.1-.1-.2-.2-.3-.3.1 0 .2-.1.2-.1l6.8-22.5v-2.9c-1.1 2.1-3.5 3-4.3 5.2-.4 1.1 0 1.7-.1 2.8-.2 1.3-1.1 1.9-1.6 3.1-.7 1.6-.4 4-.7 5.6-.2 1-.1 1.9-.2 2.9-.4 3.3-2.7 3.4-5.5 3.5-2 .1-2.3 2.7-.5 3.4 1.2.5 2.7.9 3.7 1.8 1.8 1.4 1.7 3 1.8 5 .1 2.8 1.5 5.2 2.1 7.9 1.2 4.9 1.7 9.9 5.1 13.7z" fill="#191c3c" opacity=".1"/><path d="m260.9 39.6 14.9 2c2.4.3 4.6 1.6 6 3.4l18.5 38.8c1 2.2 1.3 4.7.7 7l-8.8 34h-12l6.8-35.2-14.3-27z" fill="#c5c7d3"/><path d="m227.8 142.3s0-.3 0-.8 0-1.2 0-2.1c0-1.9 0-4.5-.2-7.7s-.5-6.9-1-10.8c-.4-3.9-.9-8.2-1.3-12.4s-.6-8.5-.6-12.5.3-7.7.7-10.9c.4-3.1 1-7.2 1.5-8.9.2-.9 0-1.8.1-2.2.2-.4.1-2.5.1-2.5l1.4 4.4s.2.7.1 1.2c-.1.4-.3 1.3-.5 2.1-.5 1.6-1.5 3.2-2 6.3-.5 3-.8 6.7-.8 10.6-.1 3.9.1 8.2.5 12.4.3 4.2.8 8.4 1.1 12.4.4 4 .7 7.7.8 10.9.2 3.2.2 5.8.1 7.7 0 .9 0 1.7-.1 2.1.1.4.1.7.1.7z" fill="#191c3c" opacity=".1"/><path d="m256.2 46.2.2-5.4-2.2-1.7.2 6.6-6.7 7.8-.5-2.4-4.5-3.3-4.9.2-2.4 5 2.2 4.8c.9 2.1 3 3.4 5.3 3.4 1.8 0 3.4-.8 4.5-2.2l7.3-9c1-.8 1.5-2.3 1.5-3.8z" fill="#1e2022"/><path d="m238.6 50.9 4.9-.3 2.1 2 .6 3.4-2.5 2.6h-3.4l-2.1-1.9-.6-3.4z" fill="#fec55e"/><path d="m240.7 55.2h2.4v4.6h-2.4z" fill="#1e2022"/><path d="m13.3 173.1h320.9v23.4h-320.9z" fill="#fff"/><path d="m334.2 183.6-320.9-5.5v-9.5h320.9z" fill="#dfe2ec"/><path d="m1.2 164.4h347.5v7.9h-347.5z" fill="#fff"/><path d="m220.3 165.2h-66.5c-2.1 0-4-1.2-4.8-3.1l-1.6-3.5h79.5l-1.6 3.5c-1 1.9-2.9 3.1-5 3.1z" fill="#dfe2ec"/><path d="m221.3 161.9h-68.4c-1.8 0-3.2-1.4-3.2-3.2v-41.8c0-1.8 1.4-3.2 3.2-3.2h68.4c1.8 0 3.2 1.4 3.2 3.2v41.8c0 1.7-1.4 3.2-3.2 3.2z" fill="#f5f7f9"/><circle cx="187.1" cy="139.3" fill="#e6e7e8" r="5.3"/><path d="m30.9 144.3c-.1 0-.1.1-.2.1-1.8.9-2.8.7-4.6-.1-1.6-.8-3.2-1.7-4.6-2.9-1.7-1.5-3.1-3.6-3.3-5.8-.1-.5-.1-1.1.2-1.5.4-.6 1.3-.7 1.9-.4.7.3 1.2.8 1.7 1.2.2.2.5.4.8.5s.6 0 .8-.3c.2-.4-.2-.9-.5-1.2-.9-.7-1.7-1.1-2.5-1.8-1.1-.8-2.2-1.8-2.8-3s-.8-2.8-.1-4c.2-.4.5-.7.8-.9.6-.4 1.4-.4 2.2-.2.7.2 1.4.4 2.2.5 1.7.2 2.4-1 2.4-2.6 0-1.1-.4-2.1-.4-3.2-.1-1.9.8-3.9 2.5-4.7s4.1 0 4.7 1.8c.7 1.9-.9 4.1.2 6 .3.6 1.1 1.4 1.6 1.8 1 .6 2.3-.1 3.4-.1.2 0 .5 0 .7.2.1.1.2.3.2.5.3 1.4-.2 2.8-1.2 3.8-1.2 1-3.2 1.6-3.6 3.2-.3 1-.2 3.6 1.5 3.3.6-.1 1-.7 1.6-.9.7-.2 1.5.2 1.9.9.3.7.2 1.5-.1 2.2-.4 1.1-1.3 2-2.1 2.9-1.9 1.9-3 3.6-5.3 4.7z" fill="#00c9a7"/><path d="m28.5 120.6v23.7" fill="none" stroke="#191c3c" stroke-miterlimit="10"/><path d="m33.1 127.5-4.6 4.6-4.6-4.6" fill="none" stroke="#191c3c" stroke-miterlimit="10"/><path d="m33.1 136.7-4.6 4.6-4.6-4.6" fill="none" stroke="#191c3c" stroke-miterlimit="10"/><path d="m28.6 164.2c-7.2 0-13-5.8-13-13v-6.8h26.1v6.8c0 7.2-5.9 13-13.1 13z" fill="#ffc107"/><path d="m37.2 144.3v6.8c0 6.4-4.7 11.8-10.8 12.8.7.1 1.5.2 2.2.2 7.2 0 13-5.8 13-13v-6.8z" fill="#efa02e"/><path d="m296.2 98.4c.1-.2.2-.4.3-.6h2.8l1.5-5.6h-14.2l-1.6 8.2h7.5c1.5-.1 2.9-.9 3.7-2z" fill="#191c3c" opacity=".3"/><path d="m298.3 99.1c0 .5.1 1 .3 1.5l.4-1.5z" fill="#191c3c" opacity=".3"/><path d="m279.8 98.6h12.8c2.4 0 4.4-2 4.4-4.4h-21.5c-.1 2.5 1.8 4.4 4.3 4.4z" fill="#fed17e"/><path d="m279.8 97.7h12.8c2.1 0 3.9-1.5 4.3-3.4h.1c0 2.4-2 4.4-4.4 4.4h-12.8c-2.4 0-4.4-2-4.4-4.4h.1c.4 1.9 2.2 3.4 4.3 3.4z" fill="#fde8bd"/><path d="m300.9 94.3h2.2v5.7h-2.2z" fill="#191c3c" transform="matrix(-1 0 0 -1 604.0626 194.2127)"/><path d="m306.5 99.3h2.2v5.7h-2.2z" fill="#191c3c" transform="matrix(-1 0 0 -1 615.2309 204.2466)"/><path d="m307.6 98.2h2.2v5.7h-2.2z" fill="#191c3c" transform="matrix(0 -1 1 0 207.6217 409.7916)"/><path d="m272 96.1h32v-5.6h-26.3c-3.2 0-5.7 2.5-5.7 5.6z" fill="#191c3c"/><path d="m277.3 92.6c-2.3 0-4.3 1.4-5.2 3.5h-.1c0-3.1 2.5-5.6 5.6-5.6h26.4v2.2h-26.7z" fill="#474963"/><g fill="#191c3c"><path d="m298.3 97.5h10.9v5h-5.9c-2.8 0-5-2.3-5-5z"/><path d="m318.7 98.6h1.4v32.9h-1.4z" transform="matrix(.8472 -.5313 .5313 .8472 -12.3032 187.2895)"/><path d="m314.7 102h1.4v29.6h-1.4z" transform="matrix(.8485 -.5292 .5292 .8485 -14.0293 184.6429)"/><path d="m299.2 142.6h32.9v1.4h-32.9z" transform="matrix(.5312 -.8472 .8472 .5312 26.5599 334.6249)"/><path d="m304.8 144.4h29.6v1.4h-29.6z" transform="matrix(.5293 -.8484 .8484 .5293 27.3525 339.5047)"/><path d="m326.1 130.9c0 1.3 1 2.3 2.3 2.3s2.3-1 2.3-2.3-1-2.3-2.3-2.3-2.3 1-2.3 2.3z"/><path d="m322.8 128.6h5.7v4.7h-5.7z" transform="matrix(-1 0 0 -1 651.413 261.8281)"/></g><path d="m320.5 130.9c0 1.3 1 2.3 2.3 2.3s2.3-1 2.3-2.3-1-2.3-2.3-2.3-2.3 1-2.3 2.3z" fill="#474963"/><circle cx="313" cy="156.7" fill="#191c3c" r="2.3"/><path d="m307.4 154.3h5.7v4.7h-5.7z" fill="#191c3c" transform="matrix(-1 0 0 -1 620.6308 313.3006)"/><path d="m305.1 156.7c0 1.3 1 2.3 2.3 2.3s2.3-1 2.3-2.3-1-2.3-2.3-2.3c-1.2-.1-2.3 1-2.3 2.3z" fill="#474963"/><path d="m296.8 164.1h26.1c0-3-2.4-5.4-5.4-5.4h-15.4c-2.9.1-5.3 2.5-5.3 5.4z" fill="#191c3c"/><path d="m130.7 16.8h2.7c.5 0 1-.4 1-1v-3.4c0-.5-.4-1-1-1h-2.1c-.3 0-.6-.2-.8-.5-.1-.2-.2-.4-.2-.6-.1-.3-.1-.7.2-.9l1.5-1.5c.4-.4.4-1 0-1.4l-2.4-2.4c-.4-.4-1-.4-1.4 0l-1.5 1.5c-.2.2-.6.3-.9.2-.2-.1-.4-.2-.6-.3-.3-.1-.5-.4-.5-.8v-2.1c0-.5-.4-1-1-1h-3.4c-.5 0-1 .4-1 1v2.1c0 .3-.2.6-.5.8-.2.1-.4.2-.6.3-.3.1-.7.1-.9-.2l-1.5-1.5c-.4-.4-1-.4-1.4 0l-2.4 2.4c-.4.4-.4 1 0 1.4l1.5 1.5c.2.2.3.6.2.9-.1.2-.2.4-.3.6-.1.3-.4.5-.8.5h-2.1c-.5 0-1 .4-1 1v3.4c0 .5.4 1 1 1h2.1c.3 0 .6.2.8.5.1.2.2.4.2.6.1.3.1.7-.2.9l-1.5 1.5c-.4.4-.4 1 0 1.4l2.4 2.4c.4.4 1 .4 1.4 0l1.5-1.5c.2-.2.6-.3.9-.2.2.1.4.2.6.3.3.1.5.4.5.8v2.1c0 .5.4 1 1 1h3.4c.5 0 1-.4 1-1v-2.1c0-.3.2-.6.5-.8.2-.1.4-.2.6-.2.3-.1.7-.1.9.2l1.5 1.5c.4.4 1 .4 1.4 0l2.4-2.4c.4-.4.4-1 0-1.4l-1.5-1.5c-.2-.2-.3-.6-.2-.9.3-.6.5-1.2.5-1.2zm-13.5-3.6c.6-3 3.7-4.7 6.5-3.6 2.1.8 3.4 3.1 3 5.4-.6 3-3.7 4.7-6.5 3.6-2.1-.8-3.4-3.1-3-5.4z" fill="#19a0ff"/><path d="m128 14.1c0 3.4-2.7 6.1-6.1 6.1s-6.1-2.7-6.1-6.1 2.7-6.1 6.1-6.1 6.1 2.7 6.1 6.1z" fill="#fff"/><circle cx="121.9" cy="14.1" fill="#377dff" r="2"/><path d="m135 27.5h-2.5c-.3 0-.5-.2-.5-.5s.2-.5.5-.5h1.5v-1.6c0-.3.2-.5.5-.5s.5.2.5.5z" fill="#19a0ff"/><path d="m109.6 3.2c-.3 0-.5-.2-.5-.5v-2.7h2.5c.3 0 .5.2.5.5s-.2.5-.5.5h-1.5v1.6c0 .4-.3.6-.5.6z" fill="#19a0ff"/><path d="m66.6 60.6h2.6v5h-2.6z" fill="#377dff" transform="matrix(.7071 -.7071 .7071 .7071 -24.7476 66.4483)"/><path d="m68.9 63.1h5v7.1h-5z" fill="#81c3ea" transform="matrix(.7071 -.7071 .7071 .7071 -26.1764 70.0252)"/><path d="m46.7 41.9c-6 6-6 15.7 0 21.7s15.7 6 21.7 0 6-15.7 0-21.7c-6-5.9-15.7-5.9-21.7 0zm19.4 19.5c-4.7 4.7-12.4 4.7-17.2 0-4.7-4.7-4.7-12.4 0-17.2 4.7-4.7 12.4-4.7 17.2 0 4.8 4.8 4.8 12.5 0 17.2z" fill="#19a0ff"/><path d="m66.2 44.2c-4.8-4.8-12.5-4.8-17.3 0s-4.8 12.5 0 17.3 12.5 4.8 17.3 0 4.8-12.6 0-17.3zm-.8 16.4c-4.3 4.3-11.3 4.3-15.6 0s-4.3-11.3 0-15.6 11.3-4.3 15.6 0 4.3 11.3 0 15.6z" fill="#81c3ea"/><path d="m69.2 64h2.6v7.1h-2.6z" fill="#19a0ff" transform="matrix(.7071 -.7071 .7071 .7071 -27.1287 69.6307)"/><path d="m58.2 44v8.7l6.1 6.1c1.6-1.6 2.5-3.7 2.5-6.1.1-4.8-3.8-8.7-8.6-8.7z" fill="#00c9a7"/><path d="m50.8 46.1c-1.6 1.6-2.5 3.7-2.5 6.1h8.7v-8.7c-2.5.1-4.6 1.1-6.2 2.6z" fill="#de4437"/><path d="m57.4 53.5h-8.7c0 4.8 3.9 8.7 8.7 8.7 2.4 0 4.6-1 6.1-2.5z" fill="#ffc107"/><path d="m127.8 44.8v23.5c0 .5-.4.8-.8.8h-5v4 5.4c0 .4-.5.6-.8.3l-10-9.7h-23.8c-.5 0-.8-.4-.8-.8v-23.5c0-.5.4-.8.8-.8h39.6c.4 0 .8.3.8.8z" fill="#5dafd8"/><path d="m123.5 52.5h-32.3c-.6 0-1.1-.5-1.1-1.1 0-.6.5-1.1 1.1-1.1h32.3c.6 0 1.1.5 1.1 1.1 0 .6-.5 1.1-1.1 1.1z" fill="#fff"/><path d="m123.5 57.7h-32.3c-.6 0-1.1-.5-1.1-1.1 0-.6.5-1.1 1.1-1.1h32.3c.6 0 1.1.5 1.1 1.1 0 .7-.5 1.1-1.1 1.1z" fill="#fff"/><path d="m123.5 63h-25.6c-.6 0-1.1-.5-1.1-1.1 0-.6.5-1.1 1.1-1.1h25.6c.6 0 1.1.5 1.1 1.1 0 .6-.5 1.1-1.1 1.1z" fill="#fff"/><path d="m262.6.8v23.5c0 .5.4.8.8.8h5v4 5.4c0 .4.5.6.8.3l10-9.7h23.8c.5 0 .8-.4.8-.8v-23.5c0-.5-.4-.8-.8-.8h-39.5c-.5 0-.9.4-.9.8z" fill="#19a0ff"/><path d="m266.9 8.5h32.3c.6 0 1.1-.5 1.1-1.1 0-.6-.5-1.1-1.1-1.1h-32.3c-.6 0-1.1.5-1.1 1.1 0 .7.5 1.1 1.1 1.1z" fill="#fff"/><path d="m266.9 13.8h32.3c.6 0 1.1-.5 1.1-1.1 0-.6-.5-1.1-1.1-1.1h-32.3c-.6 0-1.1.5-1.1 1.1 0 .6.5 1.1 1.1 1.1z" fill="#fff"/><path d="m266.9 19h25.6c.6 0 1.1-.5 1.1-1.1 0-.6-.5-1.1-1.1-1.1h-25.6c-.6 0-1.1.5-1.1 1.1 0 .6.5 1.1 1.1 1.1z" fill="#fff"/><path d="m292.2 142.8h-1.7-13.7-1.7l-6.6 21.3h1.7 8.5 5.2 1.7 3 2.7l-2.5-10.5z" fill="#191c3c" opacity=".3"/><path d="m290.6 164.1h2.7l-2.7-11.4-9.9 11.4z" fill="#273747"/><path d="m287.6 164.1h-15.4l6.6-21.3h15.4z" fill="#191c3c"/><path d="m285.9 164.1h-15.4l6.6-21.3h15.4z" fill="#474963"/><path d="m284.8 161.3h-11.4l4.9-15.7h11.3z" fill="#fcd991"/><path d="m274.2 160.9 4.8-15.3h-.7l-4.9 15.7h11.4l.1-.4z" fill="#fec55e"/></svg>